<svg width="1608" height="84" viewBox="0 0 1608 84" fill="none" xmlns="http://www.w3.org/2000/svg">
<path d="M4.94141 78.0107V5.9893H56.6664C73.8356 5.9893 86.7306 7.60517 95.3515 10.8369C104.045 14.0686 108.391 18.8503 108.391 25.1818C108.391 28.5455 106.291 31.5299 102.089 34.135C97.887 36.7072 92.1639 38.7023 84.9195 40.1203C93.4679 41.2086 100.205 43.2861 105.131 46.3529C110.13 49.3868 112.629 53.0143 112.629 57.2353C112.629 63.6987 108.029 68.7772 98.8288 72.4706C89.6284 76.164 76.6247 78.0107 59.8177 78.0107H4.94141ZM25.8053 44.3249V70.2447H60.2524C69.9599 70.2447 77.6027 69.1069 83.1809 66.8316C88.8315 64.5232 91.6568 61.3574 91.6568 57.3342C91.6568 48.6613 81.2973 44.3249 60.5784 44.3249H25.8053ZM25.8053 36.7072H57.3184C66.4463 36.7072 73.7269 35.6684 79.1602 33.5909C84.666 31.5134 87.4189 28.6939 87.4189 25.1324C87.4189 21.1751 84.8833 18.3061 79.8122 16.5254C74.7412 14.7117 67.0259 13.8048 56.6664 13.8048H25.8053V36.7072Z" fill="black"/>
<path d="M164.572 70.2447H239.551V78.0107H143.599V5.9893H164.572V70.2447Z" fill="black"/>
<path d="M377.883 44.3249C377.883 51.3819 375.275 57.5486 370.059 62.8249C364.843 68.0682 357.454 72.0749 347.891 74.8449C338.329 77.615 327.172 79 314.422 79C301.962 79 290.914 77.615 281.279 74.8449C271.644 72.0419 264.146 68.0682 258.785 62.9238C253.497 57.7464 250.78 51.7611 250.635 44.9679V39.7741C250.635 32.8489 253.279 26.7317 258.568 21.4225C263.856 16.1132 271.318 12.057 280.953 9.25401C290.66 6.418 301.744 5 314.205 5C326.882 5 338.039 6.40152 347.674 9.20455C357.381 11.9746 364.843 16.0143 370.059 21.3235C375.275 26.5998 377.883 32.75 377.883 39.7741V44.3249ZM357.128 39.6751C357.128 31.1341 353.361 24.5882 345.826 20.0374C338.292 15.4537 327.752 13.1618 314.205 13.1618C301.02 13.1618 290.624 15.4537 283.018 20.0374C275.483 24.5882 271.608 30.9198 271.39 39.0321V44.3249C271.39 52.602 275.194 59.115 282.8 63.8636C290.479 68.5793 301.02 70.9372 314.422 70.9372C327.897 70.9372 338.329 68.7112 345.718 64.2594C353.107 59.7745 356.91 53.3605 357.128 45.0174V39.6751Z" fill="black"/>
<path d="M525.995 68.5628C520.634 72.0584 513.136 74.68 503.501 76.4278C493.938 78.1426 482.782 79 470.032 79C457.137 79 445.69 77.6315 435.693 74.8944C425.696 72.1243 417.944 68.2001 412.439 63.1217C407.005 58.0432 404.216 52.1569 404.071 45.4626V39.1805C404.071 28.3311 409.613 19.922 420.697 13.9532C431.854 7.9844 447.502 5 467.641 5C484.158 5 497.452 6.92914 507.521 10.7874C517.591 14.6127 523.749 20.0539 525.995 27.111H505.131C501.219 17.5807 488.758 12.8155 467.75 12.8155C453.768 12.8155 443.155 15.0579 435.911 19.5428C428.739 23.9947 425.116 30.4581 425.044 38.9332V44.8195C425.044 52.8988 429.101 59.3293 437.215 64.111C445.328 68.8596 456.304 71.234 470.14 71.234C477.964 71.234 484.81 70.8382 490.678 70.0468C496.546 69.2553 501.4 67.9198 505.239 66.0401V49.865H468.619V42.1484H525.995V68.5628Z" fill="black"/>
<path d="M703.337 46.2045H636.943V78.0107H616.079V5.9893H714.095V13.8048H636.943V38.4385H703.337V46.2045Z" fill="black"/>
<path d="M761.474 78.0107H740.61V5.9893H761.474V78.0107Z" fill="black"/>
<path d="M857.752 48.8757H820.588V78.0107H799.615V5.9893H851.992C869.814 5.9893 883.506 7.83601 893.068 11.5294C902.703 15.2228 907.521 20.598 907.521 27.6551C907.521 32.1399 904.84 36.0477 899.479 39.3783C894.191 42.709 886.802 45.1988 877.312 46.8476L914.475 77.4171V78.0107H892.09L857.752 48.8757ZM820.588 41.1096H852.644C863.004 41.1096 871.226 39.8895 877.312 37.4492C883.469 35.0089 886.548 31.7442 886.548 27.6551C886.548 23.2032 883.614 19.7901 877.746 17.4158C871.951 15.0414 863.547 13.8378 852.536 13.8048H820.588V41.1096Z" fill="black"/>
<path d="M963.81 5.9893L1015.53 64.754L1067.26 5.9893H1094.32V78.0107H1073.45V49.9639L1075.41 19.6912L1023.47 78.0107H1007.49L955.66 19.8396L957.724 49.9639V78.0107H936.861V5.9893H963.81Z" fill="black"/>
<path d="M1252.86 44.3249C1252.86 51.3819 1250.25 57.5486 1245.04 62.8249C1239.82 68.0682 1232.43 72.0749 1222.87 74.8449C1213.31 77.615 1202.15 79 1189.4 79C1176.94 79 1165.89 77.615 1156.26 74.8449C1146.62 72.0419 1139.12 68.0682 1133.76 62.9238C1128.47 57.7464 1125.76 51.7611 1125.61 44.9679V39.7741C1125.61 32.8489 1128.26 26.7317 1133.55 21.4225C1138.83 16.1132 1146.3 12.057 1155.93 9.25401C1165.64 6.418 1176.72 5 1189.18 5C1201.86 5 1213.02 6.40152 1222.65 9.20455C1232.36 11.9746 1239.82 16.0143 1245.04 21.3235C1250.25 26.5998 1252.86 32.75 1252.86 39.7741V44.3249ZM1232.11 39.6751C1232.11 31.1341 1228.34 24.5882 1220.8 20.0374C1213.27 15.4537 1202.73 13.1618 1189.18 13.1618C1176 13.1618 1165.6 15.4537 1158 20.0374C1150.46 24.5882 1146.59 30.9198 1146.37 39.0321V44.3249C1146.37 52.602 1150.17 59.115 1157.78 63.8636C1165.46 68.5793 1176 70.9372 1189.4 70.9372C1202.87 70.9372 1213.31 68.7112 1220.7 64.2594C1228.09 59.7745 1231.89 53.3605 1232.11 45.0174V39.6751Z" fill="black"/>
<path d="M1318.28 55.3061L1321.32 64.8035L1325.78 56.246L1357.07 5.9893H1374.68L1405.21 56.246L1409.56 64.9519L1412.93 55.2567L1437.48 5.9893H1458.46L1420.1 78.0107H1401.08L1368.48 25.5281L1365.98 20.0374L1363.48 25.5281L1329.69 78.0107H1310.67L1272.42 5.9893H1293.28L1318.28 55.3061Z" fill="black"/>
<path d="M1529.96 42.1484L1571.25 5.9893H1594.94L1540.39 51.1511V78.0107H1519.53V51.1511L1464.98 5.9893H1488.88L1529.96 42.1484Z" fill="black"/>
<path d="M4.94141 78.0107V5.9893H56.6664C73.8356 5.9893 86.7306 7.60517 95.3515 10.8369C104.045 14.0686 108.391 18.8503 108.391 25.1818C108.391 28.5455 106.291 31.5299 102.089 34.135C97.887 36.7072 92.1639 38.7023 84.9195 40.1203C93.4679 41.2086 100.205 43.2861 105.131 46.3529C110.13 49.3868 112.629 53.0143 112.629 57.2353C112.629 63.6987 108.029 68.7772 98.8288 72.4706C89.6284 76.164 76.6247 78.0107 59.8177 78.0107H4.94141ZM25.8053 44.3249V70.2447H60.2524C69.9599 70.2447 77.6027 69.1069 83.1809 66.8316C88.8315 64.5232 91.6568 61.3574 91.6568 57.3342C91.6568 48.6613 81.2973 44.3249 60.5784 44.3249H25.8053ZM25.8053 36.7072H57.3184C66.4463 36.7072 73.7269 35.6684 79.1602 33.5909C84.666 31.5134 87.4189 28.6939 87.4189 25.1324C87.4189 21.1751 84.8833 18.3061 79.8122 16.5254C74.7412 14.7117 67.0259 13.8048 56.6664 13.8048H25.8053V36.7072Z" stroke="black" stroke-width="9" stroke-miterlimit="10"/>
<path d="M164.572 70.2447H239.551V78.0107H143.599V5.9893H164.572V70.2447Z" stroke="black" stroke-width="9" stroke-miterlimit="10"/>
<path d="M377.883 44.3249C377.883 51.3819 375.275 57.5486 370.059 62.8249C364.843 68.0682 357.454 72.0749 347.891 74.8449C338.329 77.615 327.172 79 314.422 79C301.962 79 290.914 77.615 281.279 74.8449C271.644 72.0419 264.146 68.0682 258.785 62.9238C253.497 57.7464 250.78 51.7611 250.635 44.9679V39.7741C250.635 32.8489 253.279 26.7317 258.568 21.4225C263.856 16.1132 271.318 12.057 280.953 9.25401C290.66 6.418 301.744 5 314.205 5C326.882 5 338.039 6.40152 347.674 9.20455C357.381 11.9746 364.843 16.0143 370.059 21.3235C375.275 26.5998 377.883 32.75 377.883 39.7741V44.3249ZM357.128 39.6751C357.128 31.1341 353.361 24.5882 345.826 20.0374C338.292 15.4537 327.752 13.1618 314.205 13.1618C301.02 13.1618 290.624 15.4537 283.018 20.0374C275.483 24.5882 271.608 30.9198 271.39 39.0321V44.3249C271.39 52.602 275.194 59.115 282.8 63.8636C290.479 68.5793 301.02 70.9372 314.422 70.9372C327.897 70.9372 338.329 68.7112 345.718 64.2594C353.107 59.7745 356.91 53.3605 357.128 45.0174V39.6751Z" stroke="black" stroke-width="9" stroke-miterlimit="10"/>
<path d="M525.995 68.5628C520.634 72.0584 513.136 74.68 503.501 76.4278C493.938 78.1426 482.782 79 470.032 79C457.137 79 445.69 77.6315 435.693 74.8944C425.696 72.1243 417.944 68.2001 412.439 63.1217C407.005 58.0432 404.216 52.1569 404.071 45.4626V39.1805C404.071 28.3311 409.613 19.922 420.697 13.9532C431.854 7.9844 447.502 5 467.641 5C484.158 5 497.452 6.92914 507.521 10.7874C517.591 14.6127 523.749 20.0539 525.995 27.111H505.131C501.219 17.5807 488.758 12.8155 467.75 12.8155C453.768 12.8155 443.155 15.0579 435.911 19.5428C428.739 23.9947 425.116 30.4581 425.044 38.9332V44.8195C425.044 52.8988 429.101 59.3293 437.215 64.111C445.328 68.8596 456.304 71.234 470.14 71.234C477.964 71.234 484.81 70.8382 490.678 70.0468C496.546 69.2553 501.4 67.9198 505.239 66.0401V49.865H468.619V42.1484H525.995V68.5628Z" stroke="black" stroke-width="9" stroke-miterlimit="10"/>
<path d="M703.337 46.2045H636.943V78.0107H616.079V5.9893H714.095V13.8048H636.943V38.4385H703.337V46.2045Z" stroke="black" stroke-width="9" stroke-miterlimit="10"/>
<path d="M761.474 78.0107H740.61V5.9893H761.474V78.0107Z" stroke="black" stroke-width="9" stroke-miterlimit="10"/>
<path d="M857.752 48.8757H820.588V78.0107H799.615V5.9893H851.992C869.814 5.9893 883.506 7.83601 893.068 11.5294C902.703 15.2228 907.521 20.598 907.521 27.6551C907.521 32.1399 904.84 36.0477 899.479 39.3783C894.191 42.709 886.802 45.1988 877.312 46.8476L914.475 77.4171V78.0107H892.09L857.752 48.8757ZM820.588 41.1096H852.644C863.004 41.1096 871.226 39.8895 877.312 37.4492C883.469 35.0089 886.548 31.7442 886.548 27.6551C886.548 23.2032 883.614 19.7901 877.746 17.4158C871.951 15.0414 863.547 13.8378 852.536 13.8048H820.588V41.1096Z" stroke="black" stroke-width="9" stroke-miterlimit="10"/>
<path d="M963.81 5.9893L1015.53 64.754L1067.26 5.9893H1094.32V78.0107H1073.45V49.9639L1075.41 19.6912L1023.47 78.0107H1007.49L955.66 19.8396L957.724 49.9639V78.0107H936.861V5.9893H963.81Z" stroke="black" stroke-width="9" stroke-miterlimit="10"/>
<path d="M1252.86 44.3249C1252.86 51.3819 1250.25 57.5486 1245.04 62.8249C1239.82 68.0682 1232.43 72.0749 1222.87 74.8449C1213.31 77.615 1202.15 79 1189.4 79C1176.94 79 1165.89 77.615 1156.26 74.8449C1146.62 72.0419 1139.12 68.0682 1133.76 62.9238C1128.47 57.7464 1125.76 51.7611 1125.61 44.9679V39.7741C1125.61 32.8489 1128.26 26.7317 1133.55 21.4225C1138.83 16.1132 1146.3 12.057 1155.93 9.25401C1165.64 6.418 1176.72 5 1189.18 5C1201.86 5 1213.02 6.40152 1222.65 9.20455C1232.36 11.9746 1239.82 16.0143 1245.04 21.3235C1250.25 26.5998 1252.86 32.75 1252.86 39.7741V44.3249ZM1232.11 39.6751C1232.11 31.1341 1228.34 24.5882 1220.8 20.0374C1213.27 15.4537 1202.73 13.1618 1189.18 13.1618C1176 13.1618 1165.6 15.4537 1158 20.0374C1150.46 24.5882 1146.59 30.9198 1146.37 39.0321V44.3249C1146.37 52.602 1150.17 59.115 1157.78 63.8636C1165.46 68.5793 1176 70.9372 1189.4 70.9372C1202.87 70.9372 1213.31 68.7112 1220.7 64.2594C1228.09 59.7745 1231.89 53.3605 1232.11 45.0174V39.6751Z" stroke="black" stroke-width="9" stroke-miterlimit="10"/>
<path d="M1318.28 55.3061L1321.32 64.8035L1325.78 56.246L1357.07 5.9893H1374.68L1405.21 56.246L1409.56 64.9519L1412.93 55.2567L1437.48 5.9893H1458.46L1420.1 78.0107H1401.08L1368.48 25.5281L1365.98 20.0374L1363.48 25.5281L1329.69 78.0107H1310.67L1272.42 5.9893H1293.28L1318.28 55.3061Z" stroke="black" stroke-width="9" stroke-miterlimit="10"/>
<path d="M1529.96 42.1484L1571.25 5.9893H1594.94L1540.39 51.1511V78.0107H1519.53V51.1511L1464.98 5.9893H1488.88L1529.96 42.1484Z" stroke="black" stroke-width="9" stroke-miterlimit="10"/>
</svg>
