<svg width="1599" height="82" viewBox="0 0 1599 82" fill="none" xmlns="http://www.w3.org/2000/svg">
<path d="M962.869 4.99023L1014.59 63.7549L1066.32 4.99023H1093.38V77.0116H1072.51V48.9648L1074.47 18.6921L1022.53 77.0116H1006.55L954.719 18.8405L956.784 48.9648V77.0116H935.92V4.99023H962.869Z" fill="black"/>
<path d="M1317.34 54.3071L1320.38 63.8044L1324.84 55.2469L1356.13 4.99023H1373.73L1404.27 55.2469L1408.62 63.9528L1411.99 54.2576L1436.54 4.99023H1457.52L1419.16 77.0116H1400.14L1367.54 24.529L1365.04 19.0384L1362.54 24.529L1328.75 77.0116H1309.73L1271.48 4.99023H1292.34L1317.34 54.3071Z" fill="black"/>
<path d="M962.869 4.99023L1014.59 63.7549L1066.32 4.99023H1093.38V77.0116H1072.51V48.9648L1074.47 18.6921L1022.53 77.0116H1006.55L954.719 18.8405L956.784 48.9648V77.0116H935.92V4.99023H962.869Z" stroke="black" stroke-width="9" stroke-miterlimit="10"/>
<path d="M1317.34 54.3071L1320.38 63.8044L1324.84 55.2469L1356.13 4.99023H1373.73L1404.27 55.2469L1408.62 63.9528L1411.99 54.2576L1436.54 4.99023H1457.52L1419.16 77.0116H1400.14L1367.54 24.529L1365.04 19.0384L1362.54 24.529L1328.75 77.0116H1309.73L1271.48 4.99023H1292.34L1317.34 54.3071Z" stroke="black" stroke-width="9" stroke-miterlimit="10"/>
<path d="M0.0585938 27.6564H0.218567C0.828567 27.6564 1.27857 27.5464 1.53857 27.3564C1.82857 27.1164 1.9886 26.7364 1.9386 26.3664C1.9586 25.9964 1.82859 25.6364 1.55859 25.3764C1.24859 25.1164 0.838579 24.9664 0.418579 25.0064H0.0585938V27.6564Z" fill="black"/>
<path d="M1598 3H1598.08C1598.41 3 1598.65 2.95859 1598.78 2.88706C1598.94 2.79672 1599.02 2.65367 1599 2.51438C1599.01 2.3751 1598.94 2.23958 1598.79 2.1417C1598.63 2.04383 1598.41 1.98736 1598.19 2.00241H1598V3Z" fill="black"/>
</svg>
