<svg width="1226" height="358" viewBox="0 0 1226 358" fill="none" xmlns="http://www.w3.org/2000/svg">
<path d="M133.628 54.5547L189.682 116.832L245.938 54.5547H378.929V353.221H241.707V203.633L189.682 261.387L137.656 203.633V353.153H0.433594V54.5547H133.628Z" fill="#C90016"/>
<path d="M530.387 50.2891C559.717 50.2891 586.705 57.1737 611.215 70.9431C635.284 84.2717 655.177 103.535 668.823 126.767C682.844 150.066 689.837 175.706 689.837 203.584C689.837 231.394 682.844 257.203 668.823 280.842C655.279 304.243 635.351 323.676 611.215 337.005C586.501 350.706 559.581 357.489 530.387 357.489C501.158 357.489 474.34 350.672 449.728 337.005C425.592 323.676 405.665 304.345 392.12 281.011C378.1 257.339 371.106 231.563 371.106 203.55C370.937 176.791 378.032 150.473 391.678 127.072C405.427 103.671 424.573 85.0517 449.287 71.0788C473.967 57.1738 501.056 50.2891 530.387 50.2891ZM499.699 195.648C499.699 205.008 502.652 212.503 508.457 218.269C520.712 229.766 540.265 229.766 552.419 218.269C558.427 212.266 561.347 204.771 561.347 195.648C561.448 191.307 560.6 187.067 559.038 183.099C557.578 179.47 555.338 176.113 552.588 173.196C549.839 170.449 546.41 168.245 542.71 166.752C538.738 165.158 534.494 164.378 530.183 164.378C521.968 164.209 514.058 167.465 508.423 173.196C502.55 178.962 499.597 186.355 499.699 195.648Z" fill="#C90016"/>
<path d="M843.512 54.5547V236.804C843.512 275.108 841.04 300.745 836.164 313.717C831.288 326.892 821.468 337.419 806.737 345.365C791.838 353.413 774.196 357.488 753.675 357.488C725.637 357.488 700.612 350.866 678.737 337.589C656.93 324.142 642.403 306.111 635.055 283.461C643.148 285.057 653.002 285.838 664.481 285.77C681.142 285.77 692.147 283.563 697.599 279.148C703.288 274.734 706.166 264.649 706.166 248.892V54.5547H843.512Z" fill="#C90016"/>
<path d="M1117.84 54.6567L1225.56 353.221H1088.4L1070.55 302.746H969.732L951.879 353.221H814.342L922.068 54.5547L1117.84 54.6567ZM994.665 232.306H1045.45L1020.41 159.314H1019.6L994.665 232.306Z" fill="#C90016"/>
<path d="M6.60303 22.7705V32.5117H3.32178V7.62891H12.499C15.222 7.62891 17.3525 8.32389 18.8906 9.71387C20.4401 11.1038 21.2148 12.9438 21.2148 15.2339C21.2148 17.6493 20.4572 19.512 18.9419 20.8223C17.438 22.1211 15.279 22.7705 12.4648 22.7705H6.60303ZM6.60303 20.0874H12.499C14.2536 20.0874 15.598 19.6772 16.5322 18.8569C17.4665 18.0252 17.9336 16.8289 17.9336 15.2681C17.9336 13.7869 17.4665 12.6021 16.5322 11.7134C15.598 10.8247 14.3162 10.3633 12.687 10.3291H6.60303V20.0874ZM34.5278 22.4458H28.6831V32.5117H25.3848V7.62891H33.6221C36.4248 7.62891 38.5781 8.26693 40.082 9.54297C41.5973 10.819 42.355 12.6761 42.355 15.1143C42.355 16.6637 41.9334 18.0138 41.0903 19.1646C40.2586 20.3153 39.0965 21.1755 37.604 21.7451L43.4487 32.3066V32.5117H39.9282L34.5278 22.4458ZM28.6831 19.7627H33.7246C35.3538 19.7627 36.647 19.3411 37.604 18.498C38.5724 17.6549 39.0566 16.527 39.0566 15.1143C39.0566 13.5762 38.5952 12.397 37.6724 11.5767C36.7609 10.7563 35.4393 10.3405 33.7075 10.3291H28.6831V19.7627ZM49.4302 29.8286H63.666V32.5117H45.5508V30.0508L59.1885 10.3291H45.7729V7.62891H63.1191V10.0386L49.4302 29.8286ZM81.9863 21.0103H71.2026V29.8286H83.7295V32.5117H67.9214V7.62891H83.5586V10.3291H71.2026V18.3271H81.9863V21.0103ZM105.348 10.3291H97.3501V32.5117H94.0859V10.3291H86.105V7.62891H105.348V10.3291ZM114.679 24.6675L115.158 27.9487L115.858 24.9922L120.78 7.62891H123.549L128.351 24.9922L129.035 28L129.564 24.6504L133.427 7.62891H136.725L130.692 32.5117H127.702L122.575 14.3794L122.182 12.4824L121.789 14.3794L116.474 32.5117H113.483L107.467 7.62891H110.749L114.679 24.6675ZM153.371 26.0176H142.946L140.604 32.5117H137.221L146.723 7.62891H149.594L159.113 32.5117H155.746L153.371 26.0176ZM143.937 23.3174H152.396L148.158 11.6792L143.937 23.3174ZM171.588 22.4458H165.744V32.5117H162.445V7.62891H170.683C173.485 7.62891 175.639 8.26693 177.143 9.54297C178.658 10.819 179.416 12.6761 179.416 15.1143C179.416 16.6637 178.994 18.0138 178.151 19.1646C177.319 20.3153 176.157 21.1755 174.665 21.7451L180.509 32.3066V32.5117H176.989L171.588 22.4458ZM165.744 19.7627H170.785C172.414 19.7627 173.708 19.3411 174.665 18.498C175.633 17.6549 176.117 16.527 176.117 15.1143C176.117 13.5762 175.656 12.397 174.733 11.5767C173.821 10.7563 172.5 10.3405 170.768 10.3291H165.744V19.7627ZM186.491 29.8286H200.727V32.5117H182.611V30.0508L196.249 10.3291H182.833V7.62891H200.18V10.0386L186.491 29.8286ZM218.961 26.0176H208.537L206.195 32.5117H202.812L212.313 7.62891H215.185L224.704 32.5117H221.337L218.961 26.0176ZM209.528 23.3174H217.987L213.749 11.6792L209.528 23.3174ZM232.292 7.62891L240.426 27.9316L248.561 7.62891H252.816V32.5117H249.535V22.8218L249.843 12.3628L241.674 32.5117H239.162L231.01 12.4141L231.334 22.8218V32.5117H228.053V7.62891H232.292ZM265.719 20.1216L272.213 7.62891H275.939L267.36 23.2319V32.5117H264.079V23.2319L255.5 7.62891H259.259L265.719 20.1216ZM291.115 22.7705V32.5117H287.833V7.62891H297.011C299.734 7.62891 301.864 8.32389 303.402 9.71387C304.952 11.1038 305.727 12.9438 305.727 15.2339C305.727 17.6493 304.969 19.512 303.454 20.8223C301.95 22.1211 299.791 22.7705 296.977 22.7705H291.115ZM291.115 20.0874H297.011C298.765 20.0874 300.11 19.6772 301.044 18.8569C301.978 18.0252 302.445 16.8289 302.445 15.2681C302.445 13.7869 301.978 12.6021 301.044 11.7134C300.11 10.8247 298.828 10.3633 297.199 10.3291H291.115V20.0874ZM329.054 20.8735C329.054 23.3117 328.644 25.4422 327.824 27.2651C327.003 29.0767 325.841 30.4609 324.337 31.418C322.833 32.375 321.079 32.8535 319.074 32.8535C317.114 32.8535 315.377 32.375 313.861 31.418C312.346 30.4495 311.167 29.0767 310.324 27.2993C309.492 25.5106 309.065 23.4427 309.042 21.0957V19.3013C309.042 16.9087 309.458 14.7952 310.29 12.9609C311.121 11.1266 312.295 9.72526 313.81 8.75684C315.337 7.77702 317.08 7.28711 319.04 7.28711C321.033 7.28711 322.788 7.77132 324.303 8.73975C325.83 9.69678 327.003 11.0924 327.824 12.9268C328.644 14.7497 329.054 16.8745 329.054 19.3013V20.8735ZM325.79 19.2671C325.79 16.3162 325.198 14.0547 324.013 12.4824C322.828 10.8988 321.17 10.1069 319.04 10.1069C316.966 10.1069 315.331 10.8988 314.135 12.4824C312.95 14.0547 312.34 16.2422 312.306 19.0449V20.8735C312.306 23.7332 312.904 25.9834 314.101 27.624C315.308 29.2533 316.966 30.0679 319.074 30.0679C321.193 30.0679 322.833 29.2988 323.996 27.7607C325.158 26.2113 325.756 23.9953 325.79 21.1128V19.2671ZM338.214 7.62891L346.349 27.9316L354.484 7.62891H358.739V32.5117H355.458V22.8218L355.766 12.3628L347.597 32.5117H345.084L336.933 12.4141L337.257 22.8218V32.5117H333.976V7.62891H338.214ZM371.642 20.1216L378.136 7.62891H381.862L373.283 23.2319V32.5117H370.001V23.2319L361.422 7.62891H365.182L371.642 20.1216ZM392.133 21.4204C389.319 20.6115 387.268 19.6203 385.98 18.4468C384.704 17.2619 384.066 15.8035 384.066 14.0718C384.066 12.1121 384.847 10.4943 386.408 9.21826C387.98 7.93083 390.019 7.28711 392.526 7.28711C394.235 7.28711 395.756 7.61751 397.089 8.27832C398.433 8.93913 399.47 9.85059 400.199 11.0127C400.94 12.1748 401.31 13.4451 401.31 14.8237H398.012C398.012 13.3198 397.533 12.1406 396.576 11.2861C395.619 10.4202 394.269 9.9873 392.526 9.9873C390.908 9.9873 389.643 10.3462 388.732 11.064C387.832 11.7703 387.382 12.7559 387.382 14.0205C387.382 15.0345 387.809 15.8947 388.664 16.6011C389.529 17.2961 390.993 17.9341 393.056 18.5151C395.129 19.0962 396.747 19.7399 397.909 20.4463C399.083 21.1413 399.949 21.9559 400.507 22.8901C401.076 23.8244 401.361 24.9238 401.361 26.1885C401.361 28.2051 400.575 29.8229 399.003 31.042C397.431 32.2497 395.329 32.8535 392.697 32.8535C390.988 32.8535 389.393 32.5288 387.912 31.8794C386.431 31.2186 385.285 30.3185 384.477 29.1792C383.679 28.0399 383.28 26.7467 383.28 25.2998H386.579C386.579 26.8037 387.131 27.9943 388.236 28.8716C389.353 29.7375 390.84 30.1704 392.697 30.1704C394.429 30.1704 395.756 29.8172 396.679 29.1108C397.602 28.4045 398.063 27.4417 398.063 26.2227C398.063 25.0036 397.636 24.0636 396.781 23.4028C395.927 22.7306 394.377 22.0698 392.133 21.4204ZM408.864 18.105L413.358 16.6694V18.8057L408.864 20.2412V29.8286H420.656V32.5117H405.565V21.2837L403.275 22.0015V19.8652L405.565 19.1475V7.62891H408.864V18.105ZM432.038 20.1216L438.532 7.62891H442.257L433.678 23.2319V32.5117H430.397V23.2319L421.818 7.62891H425.578L432.038 20.1216ZM459.518 24.6675L459.997 27.9487L460.697 24.9922L465.619 7.62891H468.388L473.19 24.9922L473.874 28L474.403 24.6504L478.266 7.62891H481.564L475.531 32.5117H472.541L467.414 14.3794L467.021 12.4824L466.627 14.3794L461.312 32.5117H458.322L452.306 7.62891H455.587L459.518 24.6675ZM499.269 24.6675L499.748 27.9487L500.448 24.9922L505.37 7.62891H508.139L512.941 24.9922L513.625 28L514.154 24.6504L518.017 7.62891H521.315L515.282 32.5117H512.292L507.165 14.3794L506.771 12.4824L506.378 14.3794L501.063 32.5117H498.073L492.057 7.62891H495.338L499.269 24.6675ZM532.56 20.1216L539.054 7.62891H542.78L534.201 23.2319V32.5117H530.919V23.2319L522.34 7.62891H526.1L532.56 20.1216ZM565.116 32.5117H561.818L549.291 13.3369V32.5117H545.993V7.62891H549.291L561.852 26.8892V7.62891H565.116V32.5117ZM574.464 32.5117H571.183V7.62891H574.464V32.5117ZM586.803 20.9419L583.761 24.1035V32.5117H580.48V7.62891H583.761V19.9336L594.818 7.62891H598.783L588.991 18.6177L599.552 32.5117H595.622L586.803 20.9419ZM605.944 32.5117H602.663V7.62891H605.944V32.5117Z" fill="#C90016"/>
<path d="M328.123 250.822L335.001 269.434L342.148 250.822H360.185L367.703 269.434L374.109 250.822H399.563L379.773 307.711H360.556L351.318 285.221L342.721 307.711H323.572L302.804 250.822H328.123Z" fill="black"/>
<path d="M452.922 250.924V265.163H430.321V272.232H446.035V286.471H430.321V293.472H452.922V307.711H404.543V250.822H452.922V250.924Z" fill="black"/>
<path d="M495.352 250.822C502.59 250.822 508.154 252.248 512.148 254.963C516.142 257.713 518.088 261.582 518.191 266.64C518.293 269.22 517.542 271.663 516.142 273.904C514.675 276.008 512.729 277.705 510.407 278.859C513.104 280.081 515.494 281.948 517.371 284.256C519.044 286.463 519.864 289.212 519.795 291.962C519.795 296.815 517.952 300.719 514.436 303.468C510.919 306.218 506.003 307.609 499.893 307.711H457.902V250.958H495.455V250.822H495.352ZM484.155 273.259H484.906C486.101 273.259 487.33 273.157 488.525 272.987C489.344 272.818 490.197 272.546 490.948 272.003C491.597 271.562 492.075 270.951 492.348 270.238C492.621 269.457 492.826 268.575 492.724 267.658C492.724 265.723 492.177 264.298 490.948 263.415C489.48 262.431 487.705 261.99 485.862 262.091H484.189V273.259H484.155ZM484.155 295.084H485.281C488.149 295.084 490.197 294.643 491.495 293.76C492.792 292.878 493.44 291.384 493.44 289.246C493.44 285.003 490.948 282.899 486.032 282.899H484.189V295.084H484.155Z" fill="black"/>
<path d="M563.964 250.822C566 250.822 568.003 250.924 570.141 251.093C572.177 251.262 574.383 251.533 576.487 251.871C578.592 252.21 580.73 252.582 582.563 253.022C584.327 253.462 585.956 253.902 587.721 254.511L581.171 272.312C579.338 269.842 577.03 267.811 574.349 266.221C571.939 264.799 569.292 264.122 566.509 264.021C565.219 263.919 564.032 264.292 563.013 265.002C562.267 265.612 561.893 266.491 561.893 267.371C561.893 268.251 562.64 269.131 563.998 269.943C566.102 271.094 568.24 271.974 570.548 272.752C578.184 275.494 583.173 278.133 585.481 280.773C587.687 283.514 588.875 286.933 588.807 290.452C588.807 296.442 586.398 301.011 581.612 304.294C576.827 307.543 569.733 309.133 560.332 309.133C555.649 309.133 550.931 308.795 546.315 308.152C541.903 307.543 537.457 306.392 533.316 304.801L539.663 285.85C541.428 288.489 543.702 290.791 546.587 292.449C548.996 293.938 551.644 294.818 554.529 294.919C555.649 295.021 556.735 294.649 557.651 294.039C558.466 293.498 558.941 292.618 558.941 291.738C558.839 290.587 558.194 289.538 557.176 288.929C555.411 287.88 553.578 287 551.644 286.357C545.569 284.157 541.326 281.788 539.12 279.216C536.812 276.475 535.624 273.125 535.726 269.707C535.726 263.378 538.136 258.708 542.921 255.526C547.571 252.379 554.562 250.822 563.964 250.822Z" fill="black"/>
<path d="M640.747 250.822V276.038H627.746V307.711H601.811V276.038H588.811V250.822H640.747Z" fill="black"/>
<path d="M684.306 250.831C688.124 250.729 691.942 251.544 695.391 253.14C698.405 254.464 700.95 256.604 702.658 259.32C704.299 261.901 705.103 264.788 705.103 267.81C705.203 272.836 702.725 277.522 698.472 280.375C701.754 283.906 704.299 288.083 706.107 292.498C708.016 297.354 709.289 302.414 709.758 307.609H682.933C682.397 300.104 681.292 294.773 679.484 291.513C677.742 288.253 675.13 286.657 671.647 286.657H671.547V307.711H645.727V250.933H684.273V250.831H684.306ZM671.58 273.447H672.216C674.661 273.447 676.503 273.006 677.575 272.225C678.747 271.24 679.383 269.644 679.216 268.15C679.316 266.655 678.747 265.127 677.675 264.075C676.403 263.022 674.762 262.411 673.054 262.58H671.614V273.447H671.58Z" fill="black"/>
<path d="M736.472 250.827C741.882 250.726 747.124 252.144 751.791 254.779C756.39 257.345 760.143 260.925 762.713 265.315C765.385 269.705 766.738 274.805 766.67 279.904C766.771 285.105 765.385 290.103 762.713 294.595C760.143 298.985 756.39 302.7 751.791 305.233C742.322 310.434 730.655 310.434 721.119 305.233C716.52 302.666 712.766 298.985 710.196 294.595C704.887 285.544 704.887 274.467 710.094 265.383C712.665 260.992 716.418 257.278 721.017 254.745C725.718 252.144 731.027 250.827 736.472 250.827ZM730.587 278.418C730.486 280.006 731.129 281.593 732.244 282.741C734.544 284.936 738.298 284.936 740.597 282.741C741.713 281.593 742.356 280.006 742.254 278.418C742.254 277.642 742.085 276.831 741.781 276.054C741.51 275.345 741.138 274.737 740.597 274.197C740.056 273.657 739.414 273.218 738.771 272.981C738.027 272.711 737.216 272.542 736.37 272.542C734.815 272.542 733.327 273.15 732.244 274.197C731.129 275.244 730.486 276.831 730.587 278.418Z" fill="black"/>
<path d="M789.542 250.822L803.554 270.179H803.728V250.822H830.706V309.133H810.246L797.385 291.125H797.211V308.684H770.232V250.891H789.542V250.822Z" fill="black"/>
<path d="M888.988 250.822L909.678 307.711H883.354L879.94 298.048H860.547L857.132 307.711H830.706L851.396 250.822H888.988ZM865.327 284.643H875.057L870.243 270.727H870.073L865.327 284.643Z" fill="black"/>
</svg>
