<svg width="1751" height="500" viewBox="0 0 1751 500" fill="none" xmlns="http://www.w3.org/2000/svg">
<path fill-rule="evenodd" clip-rule="evenodd" d="M374.16 23.0039C375.098 20.9206 375.566 18.4857 375.566 15.6992V13.9023C375.566 11.1289 375.098 8.70052 374.16 6.61719C373.223 4.52083 371.882 2.92578 370.137 1.83203C368.405 0.72526 366.4 0.171875 364.121 0.171875C361.882 0.171875 359.889 0.731771 358.145 1.85156C356.413 2.95833 355.072 4.5599 354.121 6.65625C353.171 8.7526 352.695 11.168 352.695 13.9023V15.9531C352.721 18.6354 353.21 20.9987 354.16 23.043C355.124 25.0742 356.471 26.6432 358.203 27.75C359.935 28.8438 361.921 29.3906 364.16 29.3906C366.452 29.3906 368.457 28.8438 370.176 27.75C371.895 26.6562 373.223 25.0742 374.16 23.0039ZM369.805 6.10938C371.159 7.90625 371.836 10.4909 371.836 13.8633V15.9727C371.797 19.2669 371.113 21.7995 369.785 23.5703C368.457 25.3281 366.582 26.207 364.16 26.207C361.751 26.207 359.857 25.276 358.477 23.4141C357.109 21.5391 356.426 18.9674 356.426 15.6992V13.6094C356.465 10.4062 357.161 7.90625 358.516 6.10938C359.883 4.29948 361.751 3.39453 364.121 3.39453C366.556 3.39453 368.451 4.29948 369.805 6.10938ZM7.05078 17.8672V29H3.30078V0.5625H13.7891C16.901 0.5625 19.3359 1.35677 21.0938 2.94531C22.8646 4.53385 23.75 6.63672 23.75 9.25391C23.75 12.0143 22.8841 14.1432 21.1523 15.6406C19.4336 17.125 16.9661 17.8672 13.75 17.8672H7.05078ZM7.05078 14.8008H13.7891C15.7943 14.8008 17.3307 14.332 18.3984 13.3945C19.4661 12.444 20 11.0768 20 9.29297C20 7.60026 19.4661 6.24609 18.3984 5.23047C17.3307 4.21484 15.8659 3.6875 14.0039 3.64844H7.05078V14.8008ZM872.769 92.3863C837.788 72.7792 799.212 63 757.381 63C715.549 63 676.876 72.7792 641.603 92.6296C606.331 112.48 578.978 138.996 559.349 172.274C552.336 184.254 546.538 196.776 542 209.672V69H351.532L271 157.404L190.711 69H0V492.854H196.543V280.586L271 362.561L345.506 280.586V493H542V430H515.395L502.193 397.932L489.906 430H462.633L433 349H469.186L478.968 375.495L489.135 349H514.865L525.562 375.495L534.717 349H571L557.685 387.26C558.435 388.582 559.201 389.899 559.981 391.212C564.503 398.972 569.522 406.421 575 413.522V349H646V369.348H612.86V379.448H635.92V399.747H612.86V409.701H646V430H589.121C604.412 446.097 622.311 459.897 642.235 470.857C677.362 490.318 715.646 500 757.381 500C799.066 500 837.497 490.318 872.769 470.857C892.066 460.243 909.462 446.919 924.43 431.412C935.607 447.084 950.332 460.512 968.624 471.689C999.985 490.547 1035.88 500 1076.1 500C1105.51 500 1130.83 494.201 1152.21 482.75C1158.83 479.211 1164.75 475.313 1169.99 471.053L1162 493H1359.01L1384.56 421.351H1528.98L1554.52 493H1751L1596.71 69.1461L1316.29 69L1203.73 378.328C1204.58 363.799 1205 347.118 1205 328.282V69H1007.97V345.483C1007.97 352.116 1007.61 358.04 1006.9 363.258C1008.47 366.359 1009.25 369.737 1009.25 373.211C1009.39 380.383 1005.8 387.067 999.487 391.116C1004.27 396.141 1008.01 402.093 1010.68 408.387C1013.49 415.315 1015.36 422.487 1016 429.902H976.616C975.827 419.218 974.2 411.656 971.539 406.972C969.025 402.289 965.131 400.044 960.053 400.044H959.906V430H922V349.159H974.192C981.394 327.515 985 304.806 985 281.062C985 241.361 975.04 204.969 955.023 171.788C935.541 138.753 907.119 111.361 872.769 92.3863ZM967.393 366.867C965.813 366.005 963.996 365.565 962.124 365.746H960.004V381.261H960.461C962.963 376.52 965.273 371.722 967.393 366.867ZM726.044 301.886C717.784 293.712 713.557 283.057 713.557 269.726C713.46 256.541 717.638 245.983 726.044 237.81C734.06 229.636 745.38 225.014 757.089 225.257C763.26 225.257 769.333 226.425 774.968 228.663C780.264 230.755 785.123 233.918 789.058 237.81C793.042 241.945 796.2 246.713 798.289 251.87C800.524 257.563 801.739 263.596 801.593 269.726C801.593 282.668 797.366 293.323 788.815 301.886C771.422 318.233 743.534 318.233 726.044 301.886ZM1493.02 321.354H1420.27L1455.99 217.753H1457.16L1493.02 321.354ZM32.2852 17.4961H38.9648L45.1367 29H49.1602V28.7656L42.4805 16.6953C44.1862 16.0443 45.5143 15.0612 46.4648 13.7461C47.4284 12.431 47.9102 10.888 47.9102 9.11719C47.9102 6.33073 47.0443 4.20833 45.3125 2.75C43.5938 1.29167 41.1328 0.5625 37.9297 0.5625H28.5156V29H32.2852V17.4961ZM38.0469 14.4297H32.2852V3.64844H38.0273C40.0065 3.66146 41.5169 4.13672 42.5586 5.07422C43.6133 6.01172 44.1406 7.35938 44.1406 9.11719C44.1406 10.7318 43.5872 12.0208 42.4805 12.9844C41.3867 13.9479 39.9089 14.4297 38.0469 14.4297ZM55.9961 25.9336H72.2656V29H51.5625V26.1875L67.1484 3.64844H51.8164V0.5625H71.6406V3.31641L55.9961 25.9336ZM80.8789 15.8555H93.2031V12.7891H80.8789V3.64844H95V0.5625H77.1289V29H95.1953V25.9336H80.8789V15.8555ZM119.902 3.64844H110.762V29H107.031V3.64844H97.9102V0.5625H119.902V3.64844ZM131.113 23.7852L130.566 20.0352L126.074 0.5625H122.324L129.199 29H132.617L138.691 8.27734L139.141 6.10938L139.59 8.27734L145.449 29H148.867L155.762 0.5625H151.992L147.578 20.0156L146.973 23.8438L146.191 20.4062L140.703 0.5625H137.539L131.914 20.4062L131.113 23.7852ZM162.871 21.5781L160.195 29H156.328L167.188 0.5625H170.469L181.348 29H177.5L174.785 21.5781H162.871ZM164.004 18.4922H173.672L168.828 5.19141L164.004 18.4922ZM188.926 17.4961H195.605L201.777 29H205.801V28.7656L199.121 16.6953C200.827 16.0443 202.155 15.0612 203.105 13.7461C204.069 12.431 204.551 10.888 204.551 9.11719C204.551 6.33073 203.685 4.20833 201.953 2.75C200.234 1.29167 197.773 0.5625 194.57 0.5625H185.156V29H188.926V17.4961ZM194.688 14.4297H188.926V3.64844H194.668C196.647 3.66146 198.158 4.13672 199.199 5.07422C200.254 6.01172 200.781 7.35938 200.781 9.11719C200.781 10.7318 200.228 12.0208 199.121 12.9844C198.027 13.9479 196.549 14.4297 194.688 14.4297ZM212.637 25.9336H228.906V29H208.203V26.1875L223.789 3.64844H208.457V0.5625H228.281V3.31641L212.637 25.9336ZM235.156 29L237.832 21.5781H249.746L252.461 29H256.309L245.43 0.5625H242.148L231.289 29H235.156ZM248.633 18.4922H238.965L243.789 5.19141L248.633 18.4922ZM264.98 0.5625L274.277 23.7656L283.574 0.5625H288.438V29H284.688V17.9258L285.039 5.97266L275.703 29H272.832L263.516 6.03125L263.887 17.9258V29H260.137V0.5625H264.98ZM310.605 0.5625L303.184 14.8398L295.801 0.5625H291.504L301.309 18.3945V29H305.059V18.3945L314.863 0.5625H310.605ZM332.207 17.8672V29H328.457V0.5625H338.945C342.057 0.5625 344.492 1.35677 346.25 2.94531C348.021 4.53385 348.906 6.63672 348.906 9.25391C348.906 12.0143 348.04 14.1432 346.309 15.6406C344.59 17.125 342.122 17.8672 338.906 17.8672H332.207ZM332.207 14.8008H338.945C340.951 14.8008 342.487 14.332 343.555 13.3945C344.622 12.444 345.156 11.0768 345.156 9.29297C345.156 7.60026 344.622 6.24609 343.555 5.23047C342.487 4.21484 341.022 3.6875 339.16 3.64844H332.207V14.8008ZM386.035 0.5625L395.332 23.7656L404.629 0.5625H409.492V29H405.742V17.9258L406.094 5.97266L396.758 29H393.887L384.57 6.03125L384.941 17.9258V29H381.191V0.5625H386.035ZM431.66 0.5625L424.238 14.8398L416.855 0.5625H412.559L422.363 18.3945V29H426.113V18.3945L435.918 0.5625H431.66ZM447.656 16.3242C444.44 15.3997 442.096 14.2669 440.625 12.9258C439.167 11.5716 438.438 9.90495 438.438 7.92578C438.438 5.6862 439.329 3.83724 441.113 2.37891C442.91 0.907552 445.241 0.171875 448.105 0.171875C450.059 0.171875 451.797 0.549479 453.32 1.30469C454.857 2.0599 456.042 3.10156 456.875 4.42969C457.721 5.75781 458.145 7.20964 458.145 8.78516H454.375C454.375 7.06641 453.828 5.71875 452.734 4.74219C451.641 3.7526 450.098 3.25781 448.105 3.25781C446.257 3.25781 444.811 3.66797 443.77 4.48828C442.741 5.29557 442.227 6.42188 442.227 7.86719C442.227 9.02604 442.715 10.0091 443.691 10.8164C444.681 11.6107 446.354 12.3398 448.711 13.0039C451.081 13.668 452.93 14.4036 454.258 15.2109C455.599 16.0052 456.589 16.9362 457.227 18.0039C457.878 19.0716 458.203 20.3281 458.203 21.7734C458.203 24.0781 457.305 25.9271 455.508 27.3203C453.711 28.7005 451.309 29.3906 448.301 29.3906C446.348 29.3906 444.525 29.0195 442.832 28.2773C441.139 27.5221 439.831 26.4935 438.906 25.1914C437.995 23.8893 437.539 22.4115 437.539 20.7578H441.309C441.309 22.4766 441.94 23.8372 443.203 24.8398C444.479 25.8294 446.178 26.3242 448.301 26.3242C450.28 26.3242 451.797 25.9206 452.852 25.1133C453.906 24.306 454.434 23.2057 454.434 21.8125C454.434 20.4193 453.945 19.3451 452.969 18.5898C451.992 17.8216 450.221 17.0664 447.656 16.3242ZM471.914 10.8945L466.777 12.5352V0.5625H463.008V13.7266L460.391 14.5469V16.9883L463.008 16.168V29H480.254V25.9336H466.777V14.9766L471.914 13.3359V10.8945ZM493.262 14.8398L500.684 0.5625H504.941L495.137 18.3945V29H491.387V18.3945L481.582 0.5625H485.879L493.262 14.8398ZM525.215 23.7852L524.668 20.0352L520.176 0.5625H516.426L523.301 29H526.719L532.793 8.27734L533.242 6.10938L533.691 8.27734L539.551 29H542.969L549.863 0.5625H546.094L541.68 20.0156L541.074 23.8438L540.293 20.4062L534.805 0.5625H531.641L526.016 20.4062L525.215 23.7852ZM570.098 20.0352L570.645 23.7852L571.445 20.4062L577.07 0.5625H580.234L585.723 20.4062L586.504 23.8438L587.109 20.0156L591.523 0.5625H595.293L588.398 29H584.98L579.121 8.27734L578.672 6.10938L578.223 8.27734L572.148 29H568.73L561.855 0.5625H565.605L570.098 20.0352ZM615.566 0.5625L608.145 14.8398L600.762 0.5625H596.465L606.27 18.3945V29H610.02V18.3945L619.824 0.5625H615.566ZM645.352 29H641.582L627.266 7.08594V29H623.496V0.5625H627.266L641.621 22.5742V0.5625H645.352V29ZM652.285 29H656.035V0.5625H652.285V29ZM670.137 15.7773L666.66 19.3906V29H662.91V0.5625H666.66V14.625L679.297 0.5625H683.828L672.637 13.1211L684.707 29H680.215L670.137 15.7773ZM688.262 29H692.012V0.5625H688.262V29ZM804.091 348C807.033 348 809.927 348.144 812.968 348.384C815.91 348.624 819.098 349.008 822.139 349.487C825.18 349.967 828.27 350.495 830.918 351.119C833.419 351.743 835.823 352.366 838.373 353.23L828.956 378.228C826.308 374.774 822.973 371.895 819.147 369.688C815.714 367.72 811.84 366.713 807.867 366.569C806.004 366.425 804.287 366.953 802.816 367.912C801.737 368.776 801.246 370.023 801.246 371.271C801.246 372.518 802.325 373.766 804.287 374.87C807.328 376.501 810.418 377.7 813.703 378.852C824.738 382.69 831.899 386.385 835.234 390.128C838.422 393.966 840.138 398.812 839.991 403.754C839.991 412.199 836.558 418.628 829.643 423.187C822.728 427.793 812.526 430 798.941 430C792.173 430 785.405 429.52 778.735 428.657C772.359 427.793 765.983 426.162 760 423.954L769.171 397.325C771.673 401.019 775.008 404.282 779.127 406.633C782.56 408.744 786.435 409.992 790.555 410.088C792.124 410.232 793.742 409.704 795.067 408.84C796.244 408.121 796.93 406.873 796.93 405.625C796.783 403.994 795.851 402.507 794.429 401.643C791.928 400.156 789.23 398.908 786.484 398.044C777.705 394.926 771.624 391.615 768.436 388.016C765.101 384.178 763.384 379.476 763.531 374.63C763.531 365.705 766.964 359.132 773.88 354.669C780.451 350.207 790.555 348 804.091 348ZM730.361 354.901C724.783 350.999 716.945 349 706.799 349H706.751V349.195H654V430H713.002C721.609 429.854 728.486 427.854 733.438 423.953C738.391 420.052 740.988 414.493 740.988 407.568C741.132 403.667 739.978 399.765 737.622 396.595C735.025 393.328 731.659 390.695 727.86 388.939C731.13 387.281 733.871 384.892 735.939 381.868C737.91 378.698 738.968 375.187 738.824 371.53C738.68 364.361 735.939 358.802 730.361 354.901ZM692.132 380.942H691.123V365.044H693.479C696.075 364.946 698.576 365.58 700.644 366.946C702.327 368.214 703.096 370.213 703.096 372.993C703.24 374.261 702.952 375.529 702.567 376.65C702.134 377.674 701.509 378.552 700.596 379.186C699.586 379.918 698.384 380.308 697.229 380.551C695.498 380.795 693.815 380.942 692.132 380.942ZM692.661 412.054H691.074V394.645H693.671C700.596 394.645 704.106 397.668 704.106 403.715C704.106 406.739 703.192 408.884 701.365 410.152C699.586 411.42 696.701 412.054 692.661 412.054ZM915 384.913V349H840V384.913H858.774V430H896.226V384.913H915ZM1074.38 353.563C1067.57 349.875 1059.97 347.864 1052.07 348.007C1044.18 348.007 1036.43 349.875 1029.57 353.611C1022.91 357.155 1017.43 362.375 1013.68 368.553C1006.08 381.293 1006.08 396.858 1013.83 409.598C1017.58 415.776 1023.06 420.948 1029.72 424.54C1043.64 431.82 1060.61 431.82 1074.38 424.54C1081.04 420.996 1086.52 415.776 1090.27 409.598C1094.12 403.276 1096.14 396.235 1095.99 388.956C1096.14 381.772 1094.17 374.588 1090.27 368.41C1086.52 362.231 1081.04 357.155 1074.38 353.563ZM1045.95 392.835C1044.33 391.255 1043.39 389.004 1043.54 386.801C1043.39 384.597 1044.33 382.394 1045.95 380.862C1047.58 379.377 1049.7 378.515 1051.97 378.515C1053.16 378.515 1054.34 378.755 1055.43 379.138C1056.37 379.521 1057.3 380.143 1058.09 380.862C1058.88 381.58 1059.43 382.442 1059.82 383.448C1060.26 384.597 1060.51 385.699 1060.51 386.801C1060.61 389.004 1059.72 391.207 1058.09 392.835C1054.79 395.948 1049.31 395.948 1045.95 392.835ZM1127.8 349L1147.27 375.871H1147.52V349H1185V430H1156.6L1138.73 405.017H1138.48V429.371H1101V349.145H1127.8V349ZM1185 430L1214.58 349H1268.42L1298 430H1260.33L1255.44 416.264H1227.71L1222.81 430H1185ZM1248.53 397.199H1234.62L1241.38 377.401H1241.62L1248.53 397.199Z" fill="black"/>
</svg>
