<svg width="163" height="780" viewBox="0 0 163 780" fill="none" xmlns="http://www.w3.org/2000/svg">
<path fill-rule="evenodd" clip-rule="evenodd" d="M0.0697072 602.904L0.0697072 624.043L101.997 673.311L102.019 673.321C105.293 674.886 108.319 676.323 111.096 677.63L103.891 680.87L0.0697072 729.67L0.0697072 780H160.613V740.461L66.89 739.416L160.613 694.689V663.548L66.3398 617.513H160.613V577.86H0.0697072L0.0697072 602.87H0L0.0697072 602.904ZM0.0697072 549.837L0.0697072 393.141H37.1461L37.1461 509.203H59.4636L59.4636 400.497H96.4445L96.4445 509.203H123.536L123.536 388.564H160.613L160.613 549.837H0.0697072ZM0.0697072 368.06L0.0697072 331.633L99.5709 238.103H0.0697072L0.0697072 198.614H160.613V235.046L61.0467 328.408H160.613V368.06H0.0697072ZM0.0697072 169.283L0.0697072 128.649H91.1315C102.958 128.649 109.143 127.013 112.034 125.289C115.486 123.231 119.01 119.315 121.707 112.454C124.323 105.526 125.733 96.8439 125.733 86.2763C125.733 67.9898 122.638 56.0994 117.746 49.4691L117.733 49.4517L117.72 49.4343C113.97 44.2845 106.477 40.7972 91.1315 40.7972H0.0697072L0.0697072 0H91.2269C106.406 0 119.828 2.57229 130.712 8.27551C142.024 14.1256 149.735 24.164 155.023 36.7681C160.443 49.5756 163 65.4979 163 84.3147C163 110.622 158.47 131.437 148.368 145.928L148.361 145.94L148.353 145.951C143.013 153.546 135.401 159.511 125.454 163.514C115.584 167.486 104.022 169.283 91.2269 169.283H0.0697072Z" fill="white"/>
</svg>
