<svg width="1632" height="368" viewBox="0 0 1632 368" fill="none" xmlns="http://www.w3.org/2000/svg">
<path d="M0.479996 29.34V0.5H117.9L239.44 231.22L363.555 0.5H474.28V29.34H427.415V332.16H474.28V361H324.93V332.16H371.795V102.47C372.138 100.753 372.31 96.805 372.31 90.625C372.653 84.1017 372.997 77.235 373.34 70.025C373.683 61.4417 374.027 52.1717 374.37 42.215H369.735L347.59 97.32L242.015 283.75H210.6L107.6 97.32L84.94 37.065H79.79V68.995C79.79 76.8917 79.79 84.445 79.79 91.655C80.1333 98.5217 80.305 102.127 80.305 102.47V332.16H124.08V361H0.479996V332.16H47.345V29.34H0.479996ZM781.413 0.5V84.96H748.453V40.67L738.153 29.34H611.978V162.725H699.013L706.738 155V133.37H739.698V221.435H706.738V199.805L699.013 191.565H611.978V332.16H746.908L757.208 321.86V271.39H790.168V361H507.433V332.16H554.298V29.34H507.433V0.5H781.413ZM1102.02 0.5H1228.71V29.34H1181.84V367.18H1148.37L938.762 84.445L916.102 44.79H914.042L919.192 84.96V332.16H966.057V361H839.367V332.16H886.232V29.34H839.367V0.5H942.367L1122.62 243.065L1149.4 287.355H1151.97L1148.88 243.065V29.34H1102.02V0.5ZM1584.73 237.915C1584.73 259.888 1581.47 278.943 1574.95 295.08C1568.42 310.873 1559.15 324.092 1547.14 334.735C1535.46 345.035 1521.22 352.76 1504.39 357.91C1487.57 363.06 1468.86 365.635 1448.26 365.635C1399.5 365.635 1362.25 356.022 1336.5 336.795C1311.1 317.225 1298.39 287.183 1298.39 246.67V29.34H1251.53V0.5H1397.79V29.34H1356.07V235.855C1356.07 253.708 1358.3 268.815 1362.77 281.175C1367.23 293.192 1373.58 302.977 1381.82 310.53C1390.41 317.74 1400.88 323.062 1413.24 326.495C1425.6 329.585 1439.67 331.13 1455.47 331.13C1485.68 331.13 1509.2 323.577 1526.02 308.47C1543.19 293.363 1551.77 268.643 1551.77 234.31V29.34H1510.06V0.5H1631.6V29.34H1584.73V237.915Z" fill="black"/>
</svg>
