<svg width="164" height="726" viewBox="0 0 164 726" fill="none" xmlns="http://www.w3.org/2000/svg">
<path d="M13.524 725.818H0.700012V673.606L103.292 619.562L0.700012 564.373V515.138H13.524V535.977H148.176V515.138H161V581.548H148.176V560.709H46.042C45.2787 560.557 43.523 560.48 40.775 560.48C37.8743 560.328 34.821 560.175 31.615 560.022C27.7984 559.87 23.6764 559.717 19.249 559.564V561.625L43.752 571.472L126.65 618.417V632.386L43.752 678.186L16.959 688.262V690.552H31.157C34.6683 690.552 38.027 690.552 41.233 690.552C44.2864 690.4 45.8894 690.323 46.042 690.323H148.176V670.858H161V725.818H148.176V704.979H13.524V725.818ZM0.700012 378.569H38.256V393.225H18.562L13.524 397.805V453.91H72.835V415.209L69.4 411.774H59.782V397.118H98.941V411.774H89.323L85.659 415.209V453.91H148.176V393.912L143.596 389.332H121.154V374.676H161V500.397H148.176V479.558H13.524V500.397H0.700012V378.569ZM0.700012 236.009V179.675H13.524V200.514H163.748V215.399L38.027 308.602L20.394 318.678V319.594L38.256 317.304H148.176V296.465H161V352.799H148.176V331.96H13.524V352.799H0.700012V306.999L108.559 226.849L128.253 214.941V213.796L108.559 215.17H13.524V236.009H0.700012ZM106.269 21.3644C116.04 21.3644 124.513 22.8147 131.688 25.7154C138.711 28.6161 144.588 32.7381 149.321 38.0814C153.901 43.2721 157.336 49.6077 159.626 57.0884C161.916 64.5691 163.061 72.8894 163.061 82.0494C163.061 103.728 158.786 120.292 150.237 131.742C141.535 143.04 128.177 148.688 110.162 148.688H13.524V169.527H0.700012V104.491H13.524V123.04H105.353C113.292 123.04 120.009 122.048 125.505 120.063C130.848 118.079 135.199 115.254 138.558 111.59C141.764 107.774 144.13 103.117 145.657 97.6214C147.031 92.1254 147.718 85.8661 147.718 78.8434C147.718 65.4087 144.359 54.9511 137.642 47.4704C130.925 39.8371 119.933 36.0204 104.666 36.0204H13.524V54.5694H0.700012V0.525391H13.524V21.3644H106.269Z" fill="black"/>
</svg>
