<svg width="1634" height="243" viewBox="0 0 1634 243" fill="none" xmlns="http://www.w3.org/2000/svg">
<path fill-rule="evenodd" clip-rule="evenodd" d="M370.992 0.103919H326.711L223.501 152.057L223.479 152.09C220.2 156.971 217.19 161.482 214.451 165.621L207.664 154.88L105.436 0.103919H0V239.441H82.8295L85.0183 99.7195L178.716 239.441H243.952L340.39 98.8992V239.441H423.458V0.103919H371.064V0L370.992 0.103919ZM482.162 0.103919H810.42V55.3773H567.284V88.6482H795.01V143.779H567.284V184.168H820.009V239.441H482.162V0.103919ZM862.961 0.103919H939.27L1135.2 148.44V0.103919H1217.93V239.441H1141.61L946.028 91.0083V239.441H862.961V0.103919ZM1279.37 0.103919H1364.5V135.859C1364.5 153.489 1367.92 162.71 1371.53 167.021C1375.85 172.166 1384.05 177.42 1398.42 181.441C1412.94 185.34 1431.12 187.442 1453.26 187.442C1491.57 187.442 1516.48 182.828 1530.37 175.535L1530.4 175.516L1530.44 175.497C1541.23 169.906 1548.54 158.736 1548.54 135.859V0.103919H1634V136.001C1634 158.63 1628.61 178.639 1616.66 194.865C1604.41 211.729 1583.38 223.224 1556.98 231.109C1530.15 239.189 1496.79 243 1457.37 243C1402.26 243 1358.66 236.246 1328.3 221.187L1328.28 221.176L1328.25 221.164C1312.34 213.204 1299.84 201.855 1291.46 187.027C1283.14 172.312 1279.37 155.076 1279.37 136.001V0.103919Z" fill="white"/>
</svg>
