<svg width="1608" height="84" fill="none" xmlns="http://www.w3.org/2000/svg"><path d="M4.941 78.01V5.99h51.725c17.17 0 30.065 1.615 38.686 4.847 8.693 3.232 13.039 8.013 13.039 14.345 0 3.364-2.1 6.348-6.302 8.953-4.202 2.572-9.925 4.567-17.17 5.985 8.549 1.089 15.286 3.166 20.212 6.233 4.999 3.034 7.498 6.661 7.498 10.882 0 6.464-4.6 11.542-13.8 15.236-9.2 3.693-22.204 5.54-39.011 5.54H4.94zm20.864-33.685v25.92h34.447c9.708 0 17.35-1.138 22.929-3.413 5.65-2.309 8.476-5.475 8.476-9.498 0-8.673-10.36-13.01-31.079-13.01H25.805zm0-7.618h31.513c9.128 0 16.409-1.039 21.842-3.116 5.506-2.078 8.259-4.897 8.259-8.459 0-3.957-2.536-6.826-7.607-8.607-5.07-1.813-12.786-2.72-23.146-2.72h-30.86v22.902zM164.572 70.245h74.979v7.766h-95.952V5.989h20.973v64.256zM377.883 44.325c0 7.057-2.608 13.224-7.824 18.5-5.216 5.243-12.605 9.25-22.168 12.02-9.562 2.77-20.719 4.155-33.469 4.155-12.46 0-23.508-1.385-33.143-4.155-9.635-2.803-17.133-6.777-22.494-11.921-5.288-5.178-8.005-11.163-8.15-17.956v-5.194c0-6.925 2.644-13.042 7.933-18.352 5.288-5.309 12.75-9.365 22.385-12.168C290.66 6.418 301.744 5 314.205 5c12.677 0 23.834 1.402 33.469 4.205 9.707 2.77 17.169 6.81 22.385 12.118 5.216 5.277 7.824 11.427 7.824 18.451v4.55zm-20.755-4.65c0-8.54-3.767-15.087-11.302-19.638-7.534-4.583-18.074-6.875-31.621-6.875-13.185 0-23.581 2.292-31.187 6.875-7.535 4.551-11.41 10.883-11.628 18.995v5.293c0 8.277 3.804 14.79 11.41 19.539 7.679 4.715 18.22 7.073 31.622 7.073 13.475 0 23.907-2.226 31.296-6.678 7.389-4.484 11.192-10.898 11.41-19.242v-5.342zM525.995 68.563c-5.361 3.495-12.859 6.117-22.494 7.865C493.938 78.143 482.782 79 470.032 79c-12.895 0-24.342-1.368-34.339-4.106-9.997-2.77-17.749-6.694-23.254-11.772-5.434-5.079-8.223-10.965-8.368-17.66V39.18c0-10.849 5.542-19.258 16.626-25.227C431.854 7.984 447.502 5 467.641 5c16.517 0 29.811 1.93 39.88 5.787 10.07 3.826 16.228 9.267 18.474 16.324h-20.864c-3.912-9.53-16.373-14.296-37.381-14.296-13.982 0-24.595 2.243-31.839 6.728-7.172 4.452-10.795 10.915-10.867 19.39v5.886c0 8.08 4.057 14.51 12.171 19.292 8.113 4.749 19.089 7.123 32.925 7.123 7.824 0 14.67-.396 20.538-1.187 5.868-.792 10.722-2.127 14.561-4.007V49.865h-36.62v-7.717h57.376v26.415zM703.337 46.205h-66.394V78.01h-20.864V5.989h98.016v7.816h-77.152v24.633h66.394v7.767zM761.474 78.01H740.61V5.99h20.864v72.02zM857.752 48.876h-37.164V78.01h-20.973V5.989h52.377c17.822 0 31.514 1.847 41.076 5.54 9.635 3.694 14.453 9.069 14.453 16.126 0 4.485-2.681 8.393-8.042 11.723-5.288 3.331-12.677 5.82-22.167 7.47l37.163 30.57v.593H892.09l-34.338-29.135zm-37.164-7.766h32.056c10.36 0 18.582-1.22 24.668-3.66 6.157-2.441 9.236-5.706 9.236-9.795 0-4.452-2.934-7.865-8.802-10.24-5.795-2.374-14.199-3.577-25.21-3.61h-31.948V41.11zM963.81 5.99l51.72 58.764 51.73-58.765h27.06v72.022h-20.87V49.964l1.96-30.273-51.94 58.32h-15.98L955.66 19.84l2.064 30.124V78.01h-20.863V5.989h26.949zM1252.86 44.325c0 7.057-2.61 13.224-7.82 18.5-5.22 5.243-12.61 9.25-22.17 12.02-9.56 2.77-20.72 4.155-33.47 4.155-12.46 0-23.51-1.385-33.14-4.155-9.64-2.803-17.14-6.777-22.5-11.921-5.29-5.178-8-11.163-8.15-17.956v-5.194c0-6.925 2.65-13.042 7.94-18.352 5.28-5.309 12.75-9.365 22.38-12.168C1165.64 6.418 1176.72 5 1189.18 5c12.68 0 23.84 1.402 33.47 4.205 9.71 2.77 17.17 6.81 22.39 12.118 5.21 5.277 7.82 11.427 7.82 18.451v4.55zm-20.75-4.65c0-8.54-3.77-15.087-11.31-19.638-7.53-4.583-18.07-6.875-31.62-6.875-13.18 0-23.58 2.292-31.18 6.875-7.54 4.551-11.41 10.883-11.63 18.995v5.293c0 8.277 3.8 14.79 11.41 19.539 7.68 4.715 18.22 7.073 31.62 7.073 13.47 0 23.91-2.226 31.3-6.678 7.39-4.484 11.19-10.898 11.41-19.242v-5.342zM1318.28 55.306l3.04 9.498 4.46-8.558 31.29-50.257h17.61l30.53 50.257 4.35 8.706 3.37-9.695 24.55-49.268h20.98l-38.36 72.022h-19.02l-32.6-52.483-2.5-5.49-2.5 5.49-33.79 52.483h-19.02l-38.25-72.022h20.86l25 49.317zM1529.96 42.148l41.29-36.159h23.69l-54.55 45.162v26.86h-20.86V51.15L1464.98 5.99h23.9l41.08 36.16z" fill="#000"/><path d="M4.941 78.01V5.99h51.725c17.17 0 30.065 1.615 38.686 4.847 8.693 3.232 13.039 8.013 13.039 14.345 0 3.364-2.1 6.348-6.302 8.953-4.202 2.572-9.925 4.567-17.17 5.985 8.549 1.089 15.286 3.166 20.212 6.233 4.999 3.034 7.498 6.661 7.498 10.882 0 6.464-4.6 11.542-13.8 15.236-9.2 3.693-22.204 5.54-39.011 5.54H4.94zm20.864-33.685v25.92h34.447c9.708 0 17.35-1.138 22.929-3.413 5.65-2.309 8.476-5.475 8.476-9.498 0-8.673-10.36-13.01-31.079-13.01H25.805zm0-7.618h31.513c9.128 0 16.409-1.039 21.842-3.116 5.506-2.078 8.259-4.897 8.259-8.459 0-3.957-2.536-6.826-7.607-8.607-5.07-1.813-12.786-2.72-23.146-2.72h-30.86v22.902zM164.572 70.245h74.979v7.766h-95.952V5.989h20.973v64.256zM377.883 44.325c0 7.057-2.608 13.224-7.824 18.5-5.216 5.243-12.605 9.25-22.168 12.02-9.562 2.77-20.719 4.155-33.469 4.155-12.46 0-23.508-1.385-33.143-4.155-9.635-2.803-17.133-6.777-22.494-11.921-5.288-5.178-8.005-11.163-8.15-17.956v-5.194c0-6.925 2.644-13.042 7.933-18.352 5.288-5.309 12.75-9.365 22.385-12.168C290.66 6.418 301.744 5 314.205 5c12.677 0 23.834 1.402 33.469 4.205 9.707 2.77 17.169 6.81 22.385 12.118 5.216 5.277 7.824 11.427 7.824 18.451v4.55zm-20.755-4.65c0-8.54-3.767-15.087-11.302-19.638-7.534-4.583-18.074-6.875-31.621-6.875-13.185 0-23.581 2.292-31.187 6.875-7.535 4.551-11.41 10.883-11.628 18.995v5.293c0 8.277 3.804 14.79 11.41 19.539 7.679 4.715 18.22 7.073 31.622 7.073 13.475 0 23.907-2.226 31.296-6.678 7.389-4.484 11.192-10.898 11.41-19.242v-5.342zM525.995 68.563c-5.361 3.495-12.859 6.117-22.494 7.865C493.938 78.143 482.782 79 470.032 79c-12.895 0-24.342-1.368-34.339-4.106-9.997-2.77-17.749-6.694-23.254-11.772-5.434-5.079-8.223-10.965-8.368-17.66V39.18c0-10.849 5.542-19.258 16.626-25.227C431.854 7.984 447.502 5 467.641 5c16.517 0 29.811 1.93 39.88 5.787 10.07 3.826 16.228 9.267 18.474 16.324h-20.864c-3.912-9.53-16.373-14.296-37.381-14.296-13.982 0-24.595 2.243-31.839 6.728-7.172 4.452-10.795 10.915-10.867 19.39v5.886c0 8.08 4.057 14.51 12.171 19.292 8.113 4.749 19.089 7.123 32.925 7.123 7.824 0 14.67-.396 20.538-1.187 5.868-.792 10.722-2.127 14.561-4.007V49.865h-36.62v-7.717h57.376v26.415zM703.337 46.205h-66.394V78.01h-20.864V5.989h98.016v7.816h-77.152v24.633h66.394v7.767zM761.474 78.01H740.61V5.99h20.864v72.02zM857.752 48.876h-37.164V78.01h-20.973V5.989h52.377c17.822 0 31.514 1.847 41.076 5.54 9.635 3.694 14.453 9.069 14.453 16.126 0 4.485-2.681 8.393-8.042 11.723-5.288 3.331-12.677 5.82-22.167 7.47l37.163 30.57v.593H892.09l-34.338-29.135zm-37.164-7.766h32.056c10.36 0 18.582-1.22 24.668-3.66 6.157-2.441 9.236-5.706 9.236-9.795 0-4.452-2.934-7.865-8.802-10.24-5.795-2.374-14.199-3.577-25.21-3.61h-31.948V41.11zM963.81 5.99l51.72 58.764 51.73-58.765h27.06v72.022h-20.87V49.964l1.96-30.273-51.94 58.32h-15.98L955.66 19.84l2.064 30.124V78.01h-20.863V5.989h26.949zM1252.86 44.325c0 7.057-2.61 13.224-7.82 18.5-5.22 5.243-12.61 9.25-22.17 12.02-9.56 2.77-20.72 4.155-33.47 4.155-12.46 0-23.51-1.385-33.14-4.155-9.64-2.803-17.14-6.777-22.5-11.921-5.29-5.178-8-11.163-8.15-17.956v-5.194c0-6.925 2.65-13.042 7.94-18.352 5.28-5.309 12.75-9.365 22.38-12.168C1165.64 6.418 1176.72 5 1189.18 5c12.68 0 23.84 1.402 33.47 4.205 9.71 2.77 17.17 6.81 22.39 12.118 5.21 5.277 7.82 11.427 7.82 18.451v4.55zm-20.75-4.65c0-8.54-3.77-15.087-11.31-19.638-7.53-4.583-18.07-6.875-31.62-6.875-13.18 0-23.58 2.292-31.18 6.875-7.54 4.551-11.41 10.883-11.63 18.995v5.293c0 8.277 3.8 14.79 11.41 19.539 7.68 4.715 18.22 7.073 31.62 7.073 13.47 0 23.91-2.226 31.3-6.678 7.39-4.484 11.19-10.898 11.41-19.242v-5.342zM1318.28 55.306l3.04 9.498 4.46-8.558 31.29-50.257h17.61l30.53 50.257 4.35 8.706 3.37-9.695 24.55-49.268h20.98l-38.36 72.022h-19.02l-32.6-52.483-2.5-5.49-2.5 5.49-33.79 52.483h-19.02l-38.25-72.022h20.86l25 49.317zM1529.96 42.148l41.29-36.159h23.69l-54.55 45.162v26.86h-20.86V51.15L1464.98 5.99h23.9l41.08 36.16z" stroke="#000" stroke-width="9" stroke-miterlimit="10"/></svg>