<svg width="1599" height="82" fill="none" xmlns="http://www.w3.org/2000/svg"><path d="M962.869 4.99l51.721 58.765 51.73-58.765h27.06v72.022h-20.87V48.965l1.96-30.273-51.94 58.32h-15.98L954.719 18.84l2.065 30.125v28.047H935.92V4.99h26.949zM1317.34 54.307l3.04 9.497 4.46-8.557 31.29-50.257h17.6l30.54 50.257 4.35 8.706 3.37-9.695 24.55-49.268h20.98l-38.36 72.022h-19.02l-32.6-52.483-2.5-5.49-2.5 5.49-33.79 52.483h-19.02L1271.48 4.99h20.86l25 49.317z" fill="#000"/><path d="M962.869 4.99l51.721 58.765 51.73-58.765h27.06v72.022h-20.87V48.965l1.96-30.273-51.94 58.32h-15.98L954.719 18.84l2.065 30.125v28.047H935.92V4.99h26.949zM1317.34 54.307l3.04 9.497 4.46-8.557 31.29-50.257h17.6l30.54 50.257 4.35 8.706 3.37-9.695 24.55-49.268h20.98l-38.36 72.022h-19.02l-32.6-52.483-2.5-5.49-2.5 5.49-33.79 52.483h-19.02L1271.48 4.99h20.86l25 49.317z" stroke="#000" stroke-width="9" stroke-miterlimit="10"/><path d="M.059 27.656h.16c.61 0 1.06-.11 1.32-.3.29-.24.45-.62.4-.99.02-.37-.11-.73-.38-.99a1.56 1.56 0 00-1.14-.37h-.36v2.65zM1598 3h.08c.33 0 .57-.041.7-.113.16-.09.24-.233.22-.373.01-.139-.06-.274-.21-.372a1.045 1.045 0 00-.6-.14h-.19V3z" fill="#000"/></svg>