<svg width="1226" height="358" fill="none" xmlns="http://www.w3.org/2000/svg"><path d="M133.628 54.555l56.054 62.277 56.256-62.277h132.991V353.22H241.707V203.633l-52.025 57.754-52.026-57.754v149.52H.434V54.555h133.194z" fill="#C90016"/><path d="M530.387 50.29c29.33 0 56.318 6.884 80.828 20.653 24.069 13.329 43.962 32.592 57.608 55.824 14.021 23.299 21.014 48.939 21.014 76.817 0 27.81-6.993 53.619-21.014 77.258-13.544 23.401-33.472 42.834-57.608 56.163-24.714 13.701-51.634 20.484-80.828 20.484-29.229 0-56.047-6.817-80.659-20.484-24.136-13.329-44.063-32.66-57.608-55.994-14.02-23.672-21.014-49.448-21.014-77.461-.169-26.759 6.926-53.077 20.572-76.478 13.749-23.401 32.895-42.02 57.609-55.993 24.68-13.905 51.769-20.79 81.1-20.79zm-30.688 145.358c0 9.36 2.953 16.855 8.758 22.621 12.255 11.497 31.808 11.497 43.962 0 6.008-6.003 8.928-13.498 8.928-22.621.101-4.341-.747-8.581-2.309-12.549-1.46-3.629-3.7-6.986-6.45-9.903-2.749-2.747-6.178-4.951-9.878-6.444-3.972-1.594-8.216-2.374-12.527-2.374-8.215-.169-16.125 3.087-21.76 8.818-5.873 5.766-8.826 13.159-8.724 22.452z" fill="#C90016"/><path d="M843.512 54.555v182.249c0 38.304-2.472 63.941-7.348 76.913-4.876 13.175-14.696 23.702-29.427 31.648-14.899 8.048-32.541 12.123-53.062 12.123-28.038 0-53.063-6.622-74.938-19.899-21.807-13.447-36.334-31.478-43.682-54.128 8.093 1.596 17.947 2.377 29.426 2.309 16.661 0 27.666-2.207 33.118-6.622 5.689-4.414 8.567-14.499 8.567-30.256V54.555h137.346z" fill="#C90016"/><path d="M1117.84 54.657l107.72 298.564H1088.4l-17.85-50.475H969.732l-17.853 50.475H814.342L922.068 54.555l195.772.102zM994.665 232.306h50.785l-25.04-72.992h-.81l-24.935 72.992zM6.603 22.77v9.742H3.322V7.629h9.177c2.723 0 4.853.695 6.392 2.085 1.55 1.39 2.324 3.23 2.324 5.52 0 2.415-.758 4.278-2.273 5.588-1.504 1.3-3.663 1.948-6.477 1.948H6.603zm0-2.683h5.896c1.755 0 3.099-.41 4.033-1.23.934-.832 1.402-2.028 1.402-3.589 0-1.481-.468-2.666-1.402-3.555-.934-.888-2.216-1.35-3.845-1.384H6.603v9.758zm27.925 2.359h-5.845v10.066h-3.298V7.629h8.237c2.803 0 4.956.638 6.46 1.914 1.515 1.276 2.273 3.133 2.273 5.571 0 1.55-.422 2.9-1.265 4.05-.831 1.151-1.994 2.011-3.486 2.581l5.845 10.562v.205h-3.52l-5.401-10.066zm-5.845-2.683h5.042c1.629 0 2.922-.422 3.879-1.265.968-.843 1.453-1.971 1.453-3.384 0-1.538-.462-2.717-1.385-3.537-.911-.82-2.233-1.236-3.964-1.248h-5.025v9.434zM49.43 29.829h14.236v2.683H45.551V30.05l13.637-19.722H45.773v-2.7h17.346v2.41L49.43 29.829zm32.556-8.819H71.203v8.819h12.526v2.683H67.922V7.629H83.56v2.7H71.203v7.998h10.783v2.683zm23.362-10.68H97.35v22.182h-3.264V10.329h-7.981v-2.7h19.243v2.7zm9.331 14.338l.479 3.28.7-2.956L120.78 7.63h2.769l4.802 17.363.684 3.008.529-3.35 3.863-17.021h3.298l-6.033 24.883h-2.99l-5.127-18.133-.393-1.897-.393 1.897-5.315 18.133h-2.991l-6.016-24.883h3.282l3.93 17.038zm38.692 1.35h-10.425l-2.342 6.494h-3.383l9.502-24.883h2.871l9.519 24.883h-3.367l-2.375-6.494zm-9.434-2.7h8.459l-4.238-11.639-4.221 11.638zm27.651-.872h-5.844v10.066h-3.299V7.629h8.238c2.802 0 4.956.638 6.46 1.914 1.515 1.276 2.273 3.133 2.273 5.571 0 1.55-.422 2.9-1.265 4.05-.832 1.151-1.994 2.011-3.486 2.581l5.844 10.562v.205h-3.52l-5.401-10.066zm-5.844-2.683h5.041c1.629 0 2.923-.422 3.88-1.265.968-.843 1.452-1.971 1.452-3.384 0-1.538-.461-2.717-1.384-3.537-.912-.82-2.233-1.236-3.965-1.248h-5.024v9.434zm20.747 10.066h14.236v2.683h-18.116V30.05l13.638-19.722h-13.416v-2.7h17.347v2.41l-13.689 19.79zm32.47-3.811h-10.424l-2.342 6.494h-3.383l9.501-24.883h2.872l9.519 24.883h-3.367l-2.376-6.494zm-9.433-2.7h8.459l-4.238-11.639-4.221 11.638zm22.764-15.69l8.134 20.304 8.135-20.303h4.255v24.883h-3.281v-9.69l.308-10.46-8.169 20.15h-2.512l-8.152-20.098.324 10.408v9.69h-3.281V7.629h4.239zm33.427 12.494l6.494-12.493h3.726l-8.579 15.603v9.28h-3.281v-9.28L255.5 7.629h3.759l6.46 12.493zm25.396 2.648v9.742h-3.282V7.629h9.178c2.723 0 4.853.695 6.391 2.085 1.55 1.39 2.325 3.23 2.325 5.52 0 2.415-.758 4.278-2.273 5.588-1.504 1.3-3.663 1.948-6.477 1.948h-5.862zm0-2.683h5.896c1.754 0 3.099-.41 4.033-1.23.934-.832 1.401-2.028 1.401-3.589 0-1.481-.467-2.666-1.401-3.555-.934-.888-2.216-1.35-3.845-1.384h-6.084v9.758zm37.939.787c0 2.438-.41 4.568-1.23 6.391-.821 1.812-1.983 3.196-3.487 4.153-1.504.957-3.258 1.435-5.263 1.435-1.96 0-3.697-.478-5.213-1.435-1.515-.968-2.694-2.341-3.537-4.119-.832-1.788-1.259-3.856-1.282-6.203V19.3c0-2.392.416-4.506 1.248-6.34.831-1.834 2.005-3.236 3.52-4.204 1.527-.98 3.27-1.47 5.23-1.47 1.993 0 3.748.484 5.263 1.453 1.527.957 2.7 2.352 3.521 4.187.82 1.823 1.23 3.948 1.23 6.374v1.573zm-3.264-1.607c0-2.95-.592-5.212-1.777-6.785-1.185-1.583-2.843-2.375-4.973-2.375-2.074 0-3.709.792-4.905 2.375-1.185 1.573-1.795 3.76-1.829 6.563v1.828c0 2.86.598 5.11 1.795 6.751 1.207 1.63 2.865 2.444 4.973 2.444 2.119 0 3.759-.77 4.922-2.307 1.162-1.55 1.76-3.766 1.794-6.648v-1.846zM338.214 7.63l8.135 20.303 8.135-20.303h4.255v24.883h-3.281v-9.69l.308-10.46-8.169 20.15h-2.513l-8.151-20.098.324 10.408v9.69h-3.281V7.629h4.238zm33.428 12.493l6.494-12.493h3.726l-8.579 15.603v9.28h-3.282v-9.28l-8.579-15.603h3.76l6.46 12.493zm20.491 1.298c-2.814-.809-4.865-1.8-6.153-2.973-1.276-1.185-1.914-2.643-1.914-4.375 0-1.96.781-3.578 2.342-4.854 1.572-1.287 3.611-1.93 6.118-1.93 1.709 0 3.23.33 4.563.99 1.344.661 2.381 1.573 3.11 2.735a6.949 6.949 0 011.111 3.81h-3.298c0-1.503-.479-2.682-1.436-3.537-.957-.866-2.307-1.299-4.05-1.299-1.618 0-2.883.36-3.794 1.077-.9.706-1.35 1.692-1.35 2.957 0 1.013.427 1.874 1.282 2.58.865.695 2.329 1.333 4.392 1.914 2.073.581 3.691 1.225 4.853 1.931 1.174.695 2.04 1.51 2.598 2.444.569.934.854 2.034.854 3.299 0 2.016-.786 3.634-2.358 4.853-1.572 1.208-3.674 1.811-6.306 1.811-1.709 0-3.304-.324-4.785-.974-1.481-.66-2.627-1.56-3.435-2.7-.798-1.14-1.197-2.432-1.197-3.88h3.299c0 1.505.552 2.695 1.657 3.573 1.117.866 2.604 1.298 4.461 1.298 1.732 0 3.059-.353 3.982-1.06.923-.706 1.384-1.668 1.384-2.887 0-1.22-.427-2.16-1.282-2.82-.854-.672-2.404-1.333-4.648-1.983zm16.731-3.315l4.494-1.436v2.137l-4.494 1.435v9.588h11.792v2.683h-15.091V21.284l-2.29.718v-2.137l2.29-.717V7.628h3.299v10.477zm23.174 2.017l6.494-12.493h3.725l-8.579 15.603v9.28h-3.281v-9.28l-8.579-15.603h3.76l6.46 12.493zm27.48 4.546l.479 3.28.7-2.956 4.922-17.363h2.769l4.802 17.363.684 3.008.529-3.35 3.863-17.021h3.298l-6.033 24.883h-2.99l-5.127-18.133-.393-1.897-.394 1.897-5.315 18.133h-2.99l-6.016-24.883h3.281l3.931 17.038zm39.751 0l.479 3.28.7-2.956L505.37 7.63h2.769l4.802 17.363.684 3.008.529-3.35 3.863-17.021h3.298l-6.033 24.883h-2.99l-5.127-18.133-.394-1.897-.393 1.897-5.315 18.133h-2.99l-6.016-24.883h3.281l3.931 17.038zm33.291-4.546l6.494-12.493h3.726l-8.579 15.603v9.28h-3.282v-9.28L522.34 7.629h3.76l6.46 12.493zm32.556 12.39h-3.298l-12.527-19.175v19.175h-3.298V7.629h3.298l12.561 19.26V7.63h3.264v24.883zm9.348 0h-3.281V7.629h3.281v24.883zm12.339-11.57l-3.042 3.162v8.408h-3.281V7.629h3.281v12.305l11.057-12.305h3.965l-9.792 10.989 10.561 13.894h-3.93l-8.819-11.57zm19.141 11.57h-3.281V7.629h3.281v24.883z" fill="#C90016"/><path d="M328.123 250.822l6.878 18.612 7.147-18.612h18.037l7.518 18.612 6.406-18.612h25.454l-19.79 56.889h-19.217l-9.238-22.49-8.597 22.49h-19.149l-20.768-56.889h25.319zM452.922 250.924v14.239h-22.601v7.069h15.714v14.239h-15.714v7.001h22.601v14.239h-48.379v-56.889h48.379v.102zM495.352 250.822c7.238 0 12.802 1.426 16.796 4.141 3.994 2.75 5.94 6.619 6.043 11.677.102 2.58-.649 5.023-2.049 7.264a15.224 15.224 0 01-5.735 4.955 19.271 19.271 0 016.964 5.397c1.673 2.207 2.493 4.956 2.424 7.706 0 4.853-1.843 8.757-5.359 11.506-3.517 2.75-8.433 4.141-14.543 4.243h-41.991v-56.753h37.553v-.136h-.103zm-11.197 22.437h.751a25.93 25.93 0 003.619-.272c.819-.169 1.672-.441 2.423-.984a3.736 3.736 0 001.4-1.765c.273-.781.478-1.663.376-2.58 0-1.935-.547-3.36-1.776-4.243-1.468-.984-3.243-1.425-5.086-1.324h-1.673v11.168h-.034zm0 21.825h1.126c2.868 0 4.916-.441 6.214-1.324 1.297-.882 1.945-2.376 1.945-4.514 0-4.243-2.492-6.347-7.408-6.347h-1.843v12.185h-.034zM563.964 250.822c2.036 0 4.039.102 6.177.271 2.036.169 4.242.44 6.346.778 2.105.339 4.243.711 6.076 1.151 1.764.44 3.393.88 5.158 1.489l-6.55 17.801c-1.833-2.47-4.141-4.501-6.822-6.091-2.41-1.422-5.057-2.099-7.84-2.2-1.29-.102-2.477.271-3.496.981a3.045 3.045 0 00-1.12 2.369c0 .88.747 1.76 2.105 2.572 2.104 1.151 4.242 2.031 6.55 2.809 7.636 2.742 12.625 5.381 14.933 8.021a14.978 14.978 0 013.326 9.679c0 5.99-2.409 10.559-7.195 13.842-4.785 3.249-11.879 4.839-21.28 4.839-4.683 0-9.401-.338-14.017-.981a59.164 59.164 0 01-12.999-3.351l6.347-18.951c1.765 2.639 4.039 4.941 6.924 6.599 2.409 1.489 5.057 2.369 7.942 2.47 1.12.102 2.206-.27 3.122-.88.815-.541 1.29-1.421 1.29-2.301a3.647 3.647 0 00-1.765-2.809c-1.765-1.049-3.598-1.929-5.532-2.572-6.075-2.2-10.318-4.569-12.524-7.141-2.308-2.741-3.496-6.091-3.394-9.509 0-6.329 2.41-10.999 7.195-14.181 4.65-3.147 11.641-4.704 21.043-4.704zM640.747 250.822v25.216h-13.001v31.673h-25.935v-31.673h-13v-25.216h51.936zM684.306 250.831c3.818-.102 7.636.713 11.085 2.309 3.014 1.324 5.559 3.464 7.267 6.18 1.641 2.581 2.445 5.468 2.445 8.49.1 5.026-2.378 9.712-6.631 12.565 3.282 3.531 5.827 7.708 7.635 12.123 1.909 4.856 3.182 9.916 3.651 15.111h-26.825c-.536-7.505-1.641-12.836-3.449-16.096-1.742-3.26-4.354-4.856-7.837-4.856h-.1v21.054h-25.82v-56.778h38.546v-.102h.033zm-12.726 22.616h.636c2.445 0 4.287-.441 5.359-1.222 1.172-.985 1.808-2.581 1.641-4.075a5.285 5.285 0 00-1.541-4.075c-1.272-1.053-2.913-1.664-4.621-1.495h-1.44v10.867h-.034z" fill="#000"/><path d="M736.472 250.827c5.41-.101 10.652 1.317 15.319 3.952 4.599 2.566 8.352 6.146 10.922 10.536 2.672 4.39 4.025 9.49 3.957 14.589.101 5.201-1.285 10.199-3.957 14.691a28.731 28.731 0 01-10.922 10.638c-9.469 5.201-21.136 5.201-30.672 0-4.599-2.567-8.353-6.248-10.923-10.638-5.309-9.051-5.309-20.128-.102-29.212a28.734 28.734 0 0110.923-10.638c4.701-2.601 10.01-3.918 15.455-3.918zm-5.885 27.591c-.101 1.588.542 3.175 1.657 4.323 2.3 2.195 6.054 2.195 8.353 0 1.116-1.148 1.759-2.735 1.657-4.323 0-.776-.169-1.587-.473-2.364a5.136 5.136 0 00-1.184-1.857c-.541-.54-1.183-.979-1.826-1.216a7.045 7.045 0 00-2.401-.439 5.956 5.956 0 00-4.126 1.655c-1.115 1.047-1.758 2.634-1.657 4.221zM789.542 250.822l14.012 19.357h.174v-19.357h26.978v58.311h-20.46l-12.861-18.008h-.174v17.559h-26.979v-57.793h19.31v-.069zM888.988 250.822l20.69 56.889h-26.324l-3.414-9.663h-19.393l-3.415 9.663h-26.426l20.69-56.889h37.592zm-23.661 33.821h9.73l-4.814-13.916h-.17l-4.746 13.916z" fill="#000"/></svg>