<svg width="1751" height="500" fill="none" xmlns="http://www.w3.org/2000/svg"><path fill-rule="evenodd" clip-rule="evenodd" d="M374.16 23.004c.938-2.083 1.406-4.518 1.406-7.305v-1.797c0-2.773-.468-5.201-1.406-7.285-.937-2.096-2.278-3.691-4.023-4.785-1.732-1.107-3.737-1.66-6.016-1.66-2.239 0-4.232.56-5.976 1.68-1.732 1.106-3.073 2.708-4.024 4.804-.95 2.097-1.426 4.512-1.426 7.246v2.051c.026 2.682.515 5.046 1.465 7.09.964 2.031 2.311 3.6 4.043 4.707 1.732 1.094 3.718 1.64 5.957 1.64 2.292 0 4.297-.546 6.016-1.64 1.719-1.094 3.047-2.676 3.984-4.746zm-4.355-16.895c1.354 1.797 2.031 4.382 2.031 7.754v2.11c-.039 3.294-.723 5.826-2.051 7.597-1.328 1.758-3.203 2.637-5.625 2.637-2.409 0-4.303-.931-5.683-2.793-1.368-1.875-2.051-4.447-2.051-7.715v-2.09c.039-3.203.735-5.703 2.09-7.5 1.367-1.81 3.235-2.714 5.605-2.714 2.435 0 4.33.904 5.684 2.714zM7.051 17.867V29H3.3V.562h10.488c3.112 0 5.547.795 7.305 2.383 1.77 1.589 2.656 3.692 2.656 6.309 0 2.76-.866 4.89-2.598 6.387-1.718 1.484-4.186 2.226-7.402 2.226h-6.7zm0-3.066h6.738c2.005 0 3.542-.469 4.61-1.406C19.465 12.444 20 11.077 20 9.293c0-1.693-.534-3.047-1.602-4.063-1.067-1.015-2.532-1.543-4.394-1.582H7.05v11.153zm865.718 77.585C837.788 72.78 799.212 63 757.381 63c-41.832 0-80.505 9.78-115.778 29.63-35.272 19.85-62.625 46.366-82.254 79.644A215.848 215.848 0 00542 209.672V69H351.532L271 157.404 190.711 69H0v423.854h196.543V280.586L271 362.561l74.506-81.975V493H542v-63h-26.605l-13.202-32.068L489.906 430h-27.273L433 349h36.186l9.782 26.495L489.135 349h25.73l10.697 26.495L534.717 349H571l-13.315 38.26c.75 1.322 1.516 2.639 2.296 3.952A207.875 207.875 0 00575 413.522V349h71v20.348h-33.14v10.1h23.06v20.299h-23.06v9.954H646V430h-56.879c15.291 16.097 33.19 29.897 53.114 40.857C677.362 490.318 715.646 500 757.381 500c41.685 0 80.116-9.682 115.388-29.143 19.297-10.614 36.693-23.938 51.661-39.445 11.177 15.672 25.902 29.1 44.194 40.277C999.985 490.547 1035.88 500 1076.1 500c29.41 0 54.73-5.799 76.11-17.25 6.62-3.539 12.54-7.437 17.78-11.697L1162 493h197.01l25.55-71.649h144.42L1554.52 493H1751L1596.71 69.146 1316.29 69l-112.56 309.328c.85-14.529 1.27-31.21 1.27-50.046V69h-197.03v276.483c0 6.633-.36 12.557-1.07 17.775 1.57 3.101 2.35 6.479 2.35 9.953.14 7.172-3.45 13.856-9.763 17.905 4.783 5.025 8.523 10.977 11.193 17.271 2.81 6.928 4.68 14.1 5.32 21.515h-39.384c-.789-10.684-2.416-18.246-5.077-22.93-2.514-4.683-6.408-6.928-11.486-6.928h-.147V430H922v-80.841h52.192C981.394 327.515 985 304.806 985 281.062c0-39.701-9.96-76.093-29.977-109.274-19.482-33.035-47.904-60.427-82.254-79.402zm94.624 274.481c-1.58-.862-3.397-1.302-5.269-1.121h-2.12v15.515h.457a216.213 216.213 0 006.932-14.394zm-241.349-64.981c-8.26-8.174-12.487-18.829-12.487-32.16-.097-13.185 4.081-23.743 12.487-31.916 8.016-8.174 19.336-12.796 31.045-12.553a48.464 48.464 0 0117.879 3.406c5.296 2.092 10.155 5.255 14.09 9.147 3.984 4.135 7.142 8.903 9.231 14.06 2.235 5.693 3.45 11.726 3.304 17.856 0 12.942-4.227 23.597-12.778 32.16-17.393 16.347-45.281 16.347-62.771 0zm766.976 19.468h-72.75l35.72-103.601h1.17l35.86 103.601zM32.285 17.496h6.68L45.137 29h4.023v-.234l-6.68-12.07c1.706-.652 3.034-1.635 3.985-2.95.963-1.315 1.445-2.858 1.445-4.629 0-2.786-.866-4.909-2.597-6.367-1.72-1.458-4.18-2.188-7.383-2.188h-9.414V29h3.77V17.496zm5.762-3.066h-5.762V3.648h5.742c1.98.013 3.49.489 4.532 1.426 1.054.938 1.582 2.285 1.582 4.043 0 1.615-.554 2.904-1.66 3.867-1.094.964-2.572 1.446-4.434 1.446zm17.95 11.504h16.269V29H51.562v-2.813L67.148 3.648H51.816V.562h19.825v2.754L55.996 25.934zm24.882-10.079h12.324V12.79H80.88V3.65H95V.561H77.129V29h18.066v-3.066H80.88V15.855zm39.023-12.207h-9.14V29h-3.731V3.648h-9.12V.562h21.991v3.086zm11.211 20.137l-.547-3.75L126.074.562h-3.75L129.199 29h3.418l6.074-20.723.45-2.168.449 2.168L145.449 29h3.418L155.762.562h-3.77l-4.414 19.454-.605 3.828-.782-3.438L140.703.563h-3.164l-5.625 19.843-.801 3.38zm31.758-2.207L160.195 29h-3.867L167.188.562h3.281L181.348 29H177.5l-2.715-7.422h-11.914zm1.133-3.086h9.668l-4.844-13.3-4.824 13.3zm24.922-.996h6.679L201.777 29h4.024v-.234l-6.68-12.07c1.706-.652 3.034-1.635 3.984-2.95.964-1.315 1.446-2.858 1.446-4.629 0-2.786-.866-4.909-2.598-6.367-1.719-1.458-4.18-2.188-7.383-2.188h-9.414V29h3.77V17.496zm5.762-3.066h-5.762V3.648h5.742c1.979.013 3.49.489 4.531 1.426 1.055.938 1.582 2.285 1.582 4.043 0 1.615-.553 2.904-1.66 3.867-1.094.964-2.572 1.446-4.433 1.446zm17.949 11.504h16.269V29h-20.703v-2.813l15.586-22.539h-15.332V.562h19.824v2.754l-15.644 22.618zM235.156 29l2.676-7.422h11.914L252.461 29h3.848L245.43.562h-3.282L231.289 29h3.867zm13.477-10.508h-9.668l4.824-13.3 4.844 13.3zM264.98.562l9.297 23.204L283.574.563h4.864V29h-3.75V17.926l.351-11.953L275.703 29h-2.871l-9.316-22.969.371 11.895V29h-3.75V.562h4.843zm45.625 0l-7.421 14.278L295.801.563h-4.297l9.805 17.832V29h3.75V18.395L314.863.563h-4.258zm21.602 17.305V29h-3.75V.562h10.488c3.112 0 5.547.795 7.305 2.383 1.771 1.589 2.656 3.692 2.656 6.309 0 2.76-.866 4.89-2.597 6.387-1.719 1.484-4.187 2.226-7.403 2.226h-6.699zm0-3.066h6.738c2.006 0 3.542-.469 4.61-1.406 1.067-.951 1.601-2.318 1.601-4.102 0-1.693-.534-3.047-1.601-4.063-1.068-1.015-2.533-1.543-4.395-1.582h-6.953v11.153zM386.035.562l9.297 23.204L404.629.563h4.863V29h-3.75V17.926l.352-11.953L396.758 29h-2.871L384.57 6.031l.371 11.895V29h-3.75V.562h4.844zm45.625 0l-7.422 14.278L416.855.563h-4.296l9.804 17.832V29h3.75V18.395L435.918.563h-4.258zm15.996 15.762c-3.216-.924-5.56-2.057-7.031-3.398-1.458-1.354-2.187-3.021-2.187-5 0-2.24.891-4.089 2.675-5.547C442.91.908 445.241.172 448.105.172c1.954 0 3.692.377 5.215 1.133 1.537.755 2.722 1.797 3.555 3.125a7.95 7.95 0 011.27 4.355h-3.77c0-1.719-.547-3.066-1.641-4.043-1.093-.99-2.636-1.484-4.629-1.484-1.848 0-3.294.41-4.335 1.23-1.029.808-1.543 1.934-1.543 3.38 0 1.158.488 2.141 1.464 2.948.99.795 2.663 1.524 5.02 2.188 2.37.664 4.219 1.4 5.547 2.207 1.341.794 2.331 1.725 2.969 2.793.651 1.068.976 2.324.976 3.77 0 2.304-.898 4.153-2.695 5.546-1.797 1.38-4.199 2.07-7.207 2.07-1.953 0-3.776-.37-5.469-1.113-1.693-.755-3.001-1.784-3.926-3.086-.911-1.302-1.367-2.78-1.367-4.433h3.77c0 1.719.631 3.08 1.894 4.082 1.276.99 2.975 1.484 5.098 1.484 1.979 0 3.496-.403 4.551-1.21 1.054-.808 1.582-1.908 1.582-3.302 0-1.393-.489-2.467-1.465-3.222-.977-.768-2.748-1.524-5.313-2.266zm24.258-5.43l-5.137 1.641V.562h-3.769v13.165l-2.617.82v2.441l2.617-.82V29h17.246v-3.066h-13.477V14.977l5.137-1.641v-2.441zm21.348 3.946L500.684.563h4.257l-9.804 17.832V29h-3.75V18.395L481.582.563h4.297l7.383 14.277zm31.953 8.945l-.547-3.75L520.176.562h-3.75L523.301 29h3.418l6.074-20.723.449-2.168.449 2.168L539.551 29h3.418L549.863.562h-3.769l-4.414 19.454-.606 3.828-.781-3.438L534.805.563h-3.164l-5.625 19.843-.801 3.38zm44.883-3.75l.547 3.75.8-3.379L577.07.563h3.164l5.489 19.843.781 3.438.605-3.828L591.523.563h3.77L588.398 29h-3.418l-5.859-20.723-.449-2.168-.449 2.168L572.148 29h-3.418L561.855.562h3.75l4.493 19.473zM615.566.562l-7.421 14.278L600.762.563h-4.297l9.805 17.832V29h3.75V18.395L619.824.563h-4.258zM645.352 29h-3.77L627.266 7.086V29h-3.77V.562h3.77l14.355 22.012V.562h3.731V29zm6.933 0h3.75V.562h-3.75V29zm17.852-13.223l-3.477 3.614V29h-3.75V.562h3.75v14.063L679.297.562h4.531l-11.191 12.56L684.707 29h-4.492l-10.078-13.223zM688.262 29h3.75V.562h-3.75V29zm115.829 319c2.942 0 5.836.144 8.877.384 2.942.24 6.13.624 9.171 1.103 3.041.48 6.131 1.008 8.779 1.632 2.501.624 4.905 1.247 7.455 2.111l-9.417 24.998c-2.648-3.454-5.983-6.333-9.809-8.54-3.433-1.968-7.307-2.975-11.28-3.119-1.863-.144-3.58.384-5.051 1.343-1.079.864-1.57 2.111-1.57 3.359 0 1.247 1.079 2.495 3.041 3.599 3.041 1.631 6.131 2.83 9.416 3.982 11.035 3.838 18.196 7.533 21.531 11.276 3.188 3.838 4.904 8.684 4.757 13.626 0 8.445-3.433 14.874-10.348 19.433-6.915 4.606-17.117 6.813-30.702 6.813-6.768 0-13.536-.48-20.206-1.343-6.376-.864-12.752-2.495-18.735-4.703l9.171-26.629c2.502 3.694 5.837 6.957 9.956 9.308 3.433 2.111 7.308 3.359 11.428 3.455 1.569.144 3.187-.384 4.512-1.248 1.177-.719 1.863-1.967 1.863-3.215a5.233 5.233 0 00-2.501-3.982c-2.501-1.487-5.199-2.735-7.945-3.599-8.779-3.118-14.86-6.429-18.048-10.028-3.335-3.838-5.052-8.54-4.905-13.386 0-8.925 3.433-15.498 10.349-19.961 6.571-4.462 16.675-6.669 30.211-6.669zm-73.73 6.901c-5.578-3.902-13.416-5.901-23.562-5.901h-.048v.195H654V430h59.002c8.607-.146 15.484-2.146 20.436-6.047 4.953-3.901 7.55-9.46 7.55-16.385.144-3.901-1.01-7.803-3.366-10.973a26.934 26.934 0 00-9.762-7.656 21.458 21.458 0 008.079-7.071c1.971-3.17 3.029-6.681 2.885-10.338-.144-7.169-2.885-12.728-8.463-16.629zm-38.229 26.041h-1.009v-15.898h2.356c2.596-.098 5.097.536 7.165 1.902 1.683 1.268 2.452 3.267 2.452 6.047.144 1.268-.144 2.536-.529 3.657-.433 1.024-1.058 1.902-1.971 2.536-1.01.732-2.212 1.122-3.367 1.365-1.731.244-3.414.391-5.097.391zm.529 31.112h-1.587v-17.409h2.597c6.925 0 10.435 3.023 10.435 9.07 0 3.024-.914 5.169-2.741 6.437-1.779 1.268-4.664 1.902-8.704 1.902zM915 384.913V349h-75v35.913h18.774V430h37.452v-45.087H915zm159.38-31.35c-6.81-3.688-14.41-5.699-22.31-5.556-7.89 0-15.64 1.868-22.5 5.604-6.66 3.544-12.14 8.764-15.89 14.942-7.6 12.74-7.6 28.305.15 41.045 3.75 6.178 9.23 11.35 15.89 14.942 13.92 7.28 30.89 7.28 44.66 0 6.66-3.544 12.14-8.764 15.89-14.942 3.85-6.322 5.87-13.363 5.72-20.642a37.129 37.129 0 00-5.72-20.546c-3.75-6.179-9.23-11.255-15.89-14.847zm-28.43 39.272c-1.62-1.58-2.56-3.831-2.41-6.034-.15-2.204.79-4.407 2.41-5.939a8.914 8.914 0 016.02-2.347c1.19 0 2.37.24 3.46.623.94.383 1.87 1.005 2.66 1.724.79.718 1.34 1.58 1.73 2.586.44 1.149.69 2.251.69 3.353.1 2.203-.79 4.406-2.42 6.034-3.3 3.113-8.78 3.113-12.14 0zM1127.8 349l19.47 26.871h.25V349H1185v81h-28.4l-17.87-24.983h-.25v24.354H1101v-80.226h26.8V349zm57.2 81l29.58-81h53.84l29.58 81h-37.67l-4.89-13.736h-27.73l-4.9 13.736H1185zm63.53-32.801h-13.91l6.76-19.798h.24l6.91 19.798z" fill="#000"/></svg>