<svg width="163" height="780" fill="none" xmlns="http://www.w3.org/2000/svg"><path fill-rule="evenodd" clip-rule="evenodd" d="M.07 602.904v21.139l101.927 49.268.022.01c3.274 1.565 6.3 3.002 9.077 4.309l-7.205 3.24L.07 729.67V780h160.543v-39.539l-93.723-1.045 93.723-44.727v-31.141L66.34 617.513h94.273V577.86H.07v25.01H0l.07.034zm0-53.067V393.141h37.076v116.062h22.318V400.497h36.98v108.706h27.092V388.564h37.077v161.273H.07zm0-181.777v-36.427l99.5-93.53H.07v-39.489h160.543v36.432l-99.566 93.362h99.566v39.652H.07zm0-198.777v-40.634h91.062c11.826 0 18.011-1.636 20.902-3.36 3.452-2.058 6.976-5.974 9.673-12.835 2.616-6.928 4.026-15.61 4.026-26.178 0-18.286-3.095-30.177-7.987-36.807l-.013-.017-.013-.018c-3.75-5.15-11.243-8.637-26.588-8.637H.07V0h91.157c15.179 0 28.601 2.572 39.485 8.276 11.312 5.85 19.023 15.888 24.311 28.492 5.42 12.808 7.977 28.73 7.977 47.547 0 26.307-4.53 47.122-14.632 61.613l-.007.012-.008.011c-5.34 7.595-12.952 13.56-22.899 17.563-9.87 3.972-21.432 5.769-34.227 5.769H.07z" fill="#fff"/></svg>