<svg width="1634" height="243" fill="none" xmlns="http://www.w3.org/2000/svg"><path fill-rule="evenodd" clip-rule="evenodd" d="M370.992.104h-44.281l-103.21 151.953-.022.033a2355.549 2355.549 0 00-9.028 13.531l-6.787-10.741L105.436.104H0V239.44h82.83L85.017 99.72l93.698 139.721h65.236L340.39 98.899v140.542h83.068V.104h-52.394V0l-.072.104zm111.17 0H810.42v55.273H567.284v33.271H795.01v55.131H567.284v40.389h252.725v55.273H482.162V.104zm380.799 0h76.309L1135.2 148.44V.104h82.73V239.44h-76.32L946.028 91.008v148.433h-83.067V.104zm416.409 0h85.13v135.755c0 17.63 3.42 26.851 7.03 31.162 4.32 5.145 12.52 10.399 26.89 14.42 14.52 3.899 32.7 6.001 54.84 6.001 38.31 0 63.22-4.614 77.11-11.907l.03-.019.04-.019c10.79-5.591 18.1-16.761 18.1-39.638V.104H1634V136c0 22.629-5.39 42.638-17.34 58.864-12.25 16.864-33.28 28.359-59.68 36.244-26.83 8.08-60.19 11.891-99.61 11.891-55.11 0-98.71-6.754-129.07-21.813l-.02-.011-.03-.012c-15.91-7.96-28.41-19.309-36.79-34.137-8.32-14.715-12.09-31.951-12.09-51.026V.104z" fill="#fff"/></svg>