<svg width="164" height="726" fill="none" xmlns="http://www.w3.org/2000/svg"><path d="M13.524 725.818H.7v-52.212l102.592-54.044L.7 564.373v-49.235h12.824v20.839h134.652v-20.839H161v66.41h-12.824v-20.839H46.042c-.763-.152-2.519-.229-5.267-.229-2.9-.152-5.954-.305-9.16-.458-3.817-.152-7.939-.305-12.366-.458v2.061l24.503 9.847 82.898 46.945v13.969l-82.898 45.8-26.793 10.076v2.29h24.274c3.053-.152 4.656-.229 4.809-.229h102.134v-19.465H161v54.96h-12.824v-20.839H13.524v20.839zM.7 378.569h37.556v14.656H18.562l-5.038 4.58v56.105h59.311v-38.701l-3.435-3.435h-9.618v-14.656h39.159v14.656h-9.618l-3.664 3.435v38.701h62.517v-59.998l-4.58-4.58h-22.442v-14.656H161v125.721h-12.824v-20.839H13.524v20.839H.7V378.569zm0-142.56v-56.334h12.824v20.839h150.224v14.885L38.027 308.602l-17.633 10.076v.916l17.862-2.29h109.92v-20.839H161v56.334h-12.824V331.96H13.524v20.839H.7v-45.8l107.859-80.15 19.694-11.908v-1.145l-19.694 1.374H13.524v20.839H.7zM106.269 21.364c9.771 0 18.244 1.45 25.419 4.351 7.023 2.901 12.9 7.023 17.633 12.366 4.58 5.191 8.015 11.527 10.305 19.007 2.29 7.481 3.435 15.801 3.435 24.961 0 21.679-4.275 38.243-12.824 49.693-8.702 11.298-22.06 16.946-40.075 16.946H13.524v20.839H.7v-65.036h12.824v18.549h91.829c7.939 0 14.656-.992 20.152-2.977 5.343-1.984 9.694-4.809 13.053-8.473 3.206-3.816 5.572-8.473 7.099-13.969 1.374-5.496 2.061-11.755 2.061-18.778 0-13.434-3.359-23.892-10.076-31.373-6.717-7.633-17.709-11.45-32.976-11.45H13.524v18.55H.7V.524h12.824v20.84h92.745z" fill="#000"/></svg>