<svg width="1632" height="368" fill="none" xmlns="http://www.w3.org/2000/svg"><path d="M.48 29.34V.5H117.9l121.54 230.72L363.555.5H474.28v28.84h-46.865v302.82h46.865V361H324.93v-28.84h46.865V102.47c.343-1.717.515-5.665.515-11.845.343-6.523.687-13.39 1.03-20.6.343-8.583.687-17.853 1.03-27.81h-4.635L347.59 97.32 242.015 283.75H210.6l-103-186.43-22.66-60.255h-5.15v54.59c.343 6.867.515 10.472.515 10.815v229.69h43.775V361H.48v-28.84h46.865V29.34H.48zM781.413.5v84.46h-32.96V40.67l-10.3-11.33H611.978v133.385h87.035l7.725-7.725v-21.63h32.96v88.065h-32.96v-21.63l-7.725-8.24h-87.035V332.16h134.93l10.3-10.3v-50.47h32.96V361H507.433v-28.84h46.865V29.34h-46.865V.5h273.98zm320.607 0h126.69v28.84h-46.87v337.84h-33.47L938.762 84.445l-22.66-39.655h-2.06l5.15 40.17v247.2h46.865V361h-126.69v-28.84h46.865V29.34h-46.865V.5h103l180.253 242.565 26.78 44.29h2.57l-3.09-44.29V29.34h-46.86V.5zm482.71 237.415c0 21.973-3.26 41.028-9.78 57.165-6.53 15.793-15.8 29.012-27.81 39.655-11.68 10.3-25.92 18.025-42.75 23.175-16.82 5.15-35.53 7.725-56.13 7.725-48.76 0-86.01-9.613-111.76-28.84-25.4-19.57-38.11-49.612-38.11-90.125V29.34h-46.86V.5h146.26v28.84h-41.72v206.515c0 17.853 2.23 32.96 6.7 45.32 4.46 12.017 10.81 21.802 19.05 29.355 8.59 7.21 19.06 12.532 31.42 15.965 12.36 3.09 26.43 4.635 42.23 4.635 30.21 0 53.73-7.553 70.55-22.66 17.17-15.107 25.75-39.827 25.75-74.16V29.34h-41.71V.5h121.54v28.84h-46.87v208.575z" fill="#000"/></svg>